<?xml version="1.0" encoding="UTF-8" standalone="no"?>
<!DOCTYPE svg PUBLIC "-//W3C//DTD SVG 1.1//EN"
 "http://www.w3.org/Graphics/SVG/1.1/DTD/svg11.dtd">
<!-- Generated by graphviz version 14.1.2 (20260126.1125)
 -->
<!-- Title: G Pages: 1 -->
<svg width="519pt" height="553pt"
 viewBox="0.00 0.00 519.00 553.00" xmlns="http://www.w3.org/2000/svg" xmlns:xlink="http://www.w3.org/1999/xlink">
<g id="graph0" class="graph" transform="scale(1 1) rotate(0) translate(4 549.25)">
<title>G</title>
<!-- VTKHDF -->
<g id="node1" class="node">
<title>VTKHDF</title>
<path fill="lightblue" stroke="black" d="M12,-230.5C12,-230.5 100,-230.5 100,-230.5 106,-230.5 112,-236.5 112,-242.5 112,-242.5 112,-261 112,-261 112,-267 106,-273 100,-273 100,-273 12,-273 12,-273 6,-273 0,-267 0,-261 0,-261 0,-242.5 0,-242.5 0,-236.5 6,-230.5 12,-230.5"/>
<text xml:space="preserve" text-anchor="middle" x="56" y="-255.7" font-family="Helvetica,sans-Serif" font-size="14.00">VTKHDF</text>
<text xml:space="preserve" text-anchor="middle" x="56" y="-238.45" font-family="Helvetica,sans-Serif" font-size="14.00"> Version, Type</text>
</g>
<!-- NumberOfPoints -->
<g id="node2" class="node">
<title>NumberOfPoints</title>
<path fill="lightgrey" stroke="black" d="M160,-453.75C160,-453.75 266.75,-453.75 266.75,-453.75 272.75,-453.75 278.75,-459.75 278.75,-465.75 278.75,-465.75 278.75,-477.75 278.75,-477.75 278.75,-483.75 272.75,-489.75 266.75,-489.75 266.75,-489.75 160,-489.75 160,-489.75 154,-489.75 148,-483.75 148,-477.75 148,-477.75 148,-465.75 148,-465.75 148,-459.75 154,-453.75 160,-453.75"/>
<text xml:space="preserve" text-anchor="middle" x="213.38" y="-467.45" font-family="Helvetica,sans-Serif" font-size="14.00">NumberOfPoints</text>
</g>
<!-- VTKHDF&#45;&gt;NumberOfPoints -->
<g id="edge1" class="edge">
<title>VTKHDF&#45;&gt;NumberOfPoints</title>
<path fill="none" stroke="gray" d="M61.74,-273.29C71.39,-312.47 96.89,-395.82 148,-444.75 148.62,-445.35 149.26,-445.93 149.92,-446.5"/>
<polygon fill="gray" stroke="gray" points="147.74,-449.25 157.85,-452.39 151.9,-443.62 147.74,-449.25"/>
</g>
<!-- Points -->
<g id="node3" class="node">
<title>Points</title>
<path fill="lightgrey" stroke="black" d="M196.38,-398.75C196.38,-398.75 230.38,-398.75 230.38,-398.75 236.38,-398.75 242.38,-404.75 242.38,-410.75 242.38,-410.75 242.38,-422.75 242.38,-422.75 242.38,-428.75 236.38,-434.75 230.38,-434.75 230.38,-434.75 196.38,-434.75 196.38,-434.75 190.38,-434.75 184.38,-428.75 184.38,-422.75 184.38,-422.75 184.38,-410.75 184.38,-410.75 184.38,-404.75 190.38,-398.75 196.38,-398.75"/>
<text xml:space="preserve" text-anchor="middle" x="213.38" y="-412.45" font-family="Helvetica,sans-Serif" font-size="14.00">Points</text>
</g>
<!-- VTKHDF&#45;&gt;Points -->
<g id="edge2" class="edge">
<title>VTKHDF&#45;&gt;Points</title>
<path fill="none" stroke="gray" d="M66.25,-273.29C80.05,-303.16 108.68,-357.14 148,-389.75 155.51,-395.98 164.66,-400.96 173.68,-404.86"/>
<polygon fill="gray" stroke="gray" points="172.1,-408 182.69,-408.4 174.67,-401.49 172.1,-408"/>
</g>
<!-- Vertices -->
<g id="node4" class="node">
<title>Vertices</title>
<path fill="lightblue" stroke="black" d="M190,-343.75C190,-343.75 236.75,-343.75 236.75,-343.75 242.75,-343.75 248.75,-349.75 248.75,-355.75 248.75,-355.75 248.75,-367.75 248.75,-367.75 248.75,-373.75 242.75,-379.75 236.75,-379.75 236.75,-379.75 190,-379.75 190,-379.75 184,-379.75 178,-373.75 178,-367.75 178,-367.75 178,-355.75 178,-355.75 178,-349.75 184,-343.75 190,-343.75"/>
<text xml:space="preserve" text-anchor="middle" x="213.38" y="-357.45" font-family="Helvetica,sans-Serif" font-size="14.00">Vertices</text>
</g>
<!-- VTKHDF&#45;&gt;Vertices -->
<g id="edge3" class="edge">
<title>VTKHDF&#45;&gt;Vertices</title>
<path fill="none" stroke="gray" d="M76.63,-273.41C94.02,-291.62 120.79,-317.37 148,-334.75 153.97,-338.56 160.56,-342.04 167.19,-345.13"/>
<polygon fill="gray" stroke="gray" points="165.59,-348.25 176.15,-349.07 168.41,-341.85 165.59,-348.25"/>
</g>
<!-- Lines -->
<g id="node5" class="node">
<title>Lines</title>
<path fill="lightblue" stroke="black" d="M198.38,-288.75C198.38,-288.75 228.38,-288.75 228.38,-288.75 234.38,-288.75 240.38,-294.75 240.38,-300.75 240.38,-300.75 240.38,-312.75 240.38,-312.75 240.38,-318.75 234.38,-324.75 228.38,-324.75 228.38,-324.75 198.38,-324.75 198.38,-324.75 192.38,-324.75 186.38,-318.75 186.38,-312.75 186.38,-312.75 186.38,-300.75 186.38,-300.75 186.38,-294.75 192.38,-288.75 198.38,-288.75"/>
<text xml:space="preserve" text-anchor="middle" x="213.38" y="-302.45" font-family="Helvetica,sans-Serif" font-size="14.00">Lines</text>
</g>
<!-- VTKHDF&#45;&gt;Lines -->
<g id="edge4" class="edge">
<title>VTKHDF&#45;&gt;Lines</title>
<path fill="none" stroke="gray" d="M112.22,-271.3C133.12,-278.69 156.39,-286.93 175.24,-293.61"/>
<polygon fill="gray" stroke="gray" points="174.04,-296.89 184.63,-296.93 176.38,-290.29 174.04,-296.89"/>
</g>
<!-- Polygons -->
<g id="node6" class="node">
<title>Polygons</title>
<path fill="lightblue" stroke="black" d="M186.25,-233.75C186.25,-233.75 240.5,-233.75 240.5,-233.75 246.5,-233.75 252.5,-239.75 252.5,-245.75 252.5,-245.75 252.5,-257.75 252.5,-257.75 252.5,-263.75 246.5,-269.75 240.5,-269.75 240.5,-269.75 186.25,-269.75 186.25,-269.75 180.25,-269.75 174.25,-263.75 174.25,-257.75 174.25,-257.75 174.25,-245.75 174.25,-245.75 174.25,-239.75 180.25,-233.75 186.25,-233.75"/>
<text xml:space="preserve" text-anchor="middle" x="213.38" y="-247.45" font-family="Helvetica,sans-Serif" font-size="14.00">Polygons</text>
</g>
<!-- VTKHDF&#45;&gt;Polygons -->
<g id="edge5" class="edge">
<title>VTKHDF&#45;&gt;Polygons</title>
<path fill="none" stroke="gray" d="M112.22,-251.75C128.64,-251.75 146.53,-251.75 162.59,-251.75"/>
<polygon fill="gray" stroke="gray" points="162.39,-255.25 172.39,-251.75 162.39,-248.25 162.39,-255.25"/>
</g>
<!-- Strips -->
<g id="node7" class="node">
<title>Strips</title>
<path fill="lightblue" stroke="black" d="M197.12,-178.75C197.12,-178.75 229.62,-178.75 229.62,-178.75 235.62,-178.75 241.62,-184.75 241.62,-190.75 241.62,-190.75 241.62,-202.75 241.62,-202.75 241.62,-208.75 235.62,-214.75 229.62,-214.75 229.62,-214.75 197.12,-214.75 197.12,-214.75 191.12,-214.75 185.12,-208.75 185.12,-202.75 185.12,-202.75 185.12,-190.75 185.12,-190.75 185.12,-184.75 191.12,-178.75 197.12,-178.75"/>
<text xml:space="preserve" text-anchor="middle" x="213.38" y="-192.45" font-family="Helvetica,sans-Serif" font-size="14.00">Strips</text>
</g>
<!-- VTKHDF&#45;&gt;Strips -->
<g id="edge6" class="edge">
<title>VTKHDF&#45;&gt;Strips</title>
<path fill="none" stroke="gray" d="M112.22,-232.2C132.68,-224.96 155.43,-216.91 174.06,-210.31"/>
<polygon fill="gray" stroke="gray" points="175.1,-213.66 183.36,-207.02 172.77,-207.06 175.1,-213.66"/>
</g>
<!-- FieldData -->
<g id="node8" class="node">
<title>FieldData</title>
<path fill="lightblue" stroke="black" d="M185.5,-123.75C185.5,-123.75 241.25,-123.75 241.25,-123.75 247.25,-123.75 253.25,-129.75 253.25,-135.75 253.25,-135.75 253.25,-147.75 253.25,-147.75 253.25,-153.75 247.25,-159.75 241.25,-159.75 241.25,-159.75 185.5,-159.75 185.5,-159.75 179.5,-159.75 173.5,-153.75 173.5,-147.75 173.5,-147.75 173.5,-135.75 173.5,-135.75 173.5,-129.75 179.5,-123.75 185.5,-123.75"/>
<text xml:space="preserve" text-anchor="middle" x="213.38" y="-137.45" font-family="Helvetica,sans-Serif" font-size="14.00">FieldData</text>
</g>
<!-- VTKHDF&#45;&gt;FieldData -->
<g id="edge7" class="edge">
<title>VTKHDF&#45;&gt;FieldData</title>
<path fill="none" stroke="gray" d="M77.09,-230.1C94.54,-212.2 121.18,-187.01 148,-169.75 152.75,-166.7 157.88,-163.83 163.11,-161.18"/>
<polygon fill="gray" stroke="gray" points="164.31,-164.49 171.84,-157.03 161.3,-158.17 164.31,-164.49"/>
</g>
<!-- PointData -->
<g id="node9" class="node">
<title>PointData</title>
<path fill="lightblue" stroke="black" d="M181,-62.5C181,-62.5 245.75,-62.5 245.75,-62.5 251.75,-62.5 257.75,-68.5 257.75,-74.5 257.75,-74.5 257.75,-93 257.75,-93 257.75,-99 251.75,-105 245.75,-105 245.75,-105 181,-105 181,-105 175,-105 169,-99 169,-93 169,-93 169,-74.5 169,-74.5 169,-68.5 175,-62.5 181,-62.5"/>
<text xml:space="preserve" text-anchor="middle" x="213.38" y="-87.7" font-family="Helvetica,sans-Serif" font-size="14.00">PointData</text>
<text xml:space="preserve" text-anchor="middle" x="213.38" y="-70.45" font-family="Helvetica,sans-Serif" font-size="14.00">Scalars, ...</text>
</g>
<!-- VTKHDF&#45;&gt;PointData -->
<g id="edge8" class="edge">
<title>VTKHDF&#45;&gt;PointData</title>
<path fill="none" stroke="gray" d="M66.76,-230.15C80.98,-200.73 109.89,-147.95 148,-114.75 151.38,-111.81 155.08,-109.08 158.95,-106.56"/>
<polygon fill="gray" stroke="gray" points="160.69,-109.6 167.53,-101.51 157.13,-103.57 160.69,-109.6"/>
</g>
<!-- CellData -->
<g id="node10" class="node">
<title>CellData</title>
<path fill="lightblue" stroke="black" d="M181,-0.5C181,-0.5 245.75,-0.5 245.75,-0.5 251.75,-0.5 257.75,-6.5 257.75,-12.5 257.75,-12.5 257.75,-31 257.75,-31 257.75,-37 251.75,-43 245.75,-43 245.75,-43 181,-43 181,-43 175,-43 169,-37 169,-31 169,-31 169,-12.5 169,-12.5 169,-6.5 175,-0.5 181,-0.5"/>
<text xml:space="preserve" text-anchor="middle" x="213.38" y="-25.7" font-family="Helvetica,sans-Serif" font-size="14.00">CellData</text>
<text xml:space="preserve" text-anchor="middle" x="213.38" y="-8.45" font-family="Helvetica,sans-Serif" font-size="14.00">Scalars, ...</text>
</g>
<!-- VTKHDF&#45;&gt;CellData -->
<g id="edge9" class="edge">
<title>VTKHDF&#45;&gt;CellData</title>
<path fill="none" stroke="gray" d="M61.72,-230.11C71.42,-190.28 97.07,-104.7 148,-52.75 151.32,-49.36 155.09,-46.29 159.09,-43.53"/>
<polygon fill="gray" stroke="gray" points="160.77,-46.6 167.48,-38.39 157.12,-40.63 160.77,-46.6"/>
</g>
<!-- NumberOfConnectivityIds -->
<g id="node11" class="node">
<title>NumberOfConnectivityIds</title>
<path fill="lightgrey" stroke="black" d="M326.75,-508.75C326.75,-508.75 498.75,-508.75 498.75,-508.75 504.75,-508.75 510.75,-514.75 510.75,-520.75 510.75,-520.75 510.75,-532.75 510.75,-532.75 510.75,-538.75 504.75,-544.75 498.75,-544.75 498.75,-544.75 326.75,-544.75 326.75,-544.75 320.75,-544.75 314.75,-538.75 314.75,-532.75 314.75,-532.75 314.75,-520.75 314.75,-520.75 314.75,-514.75 320.75,-508.75 326.75,-508.75"/>
<text xml:space="preserve" text-anchor="middle" x="412.75" y="-522.45" font-family="Helvetica,sans-Serif" font-size="14.00">NumberOfConnectivityIds</text>
</g>
<!-- Vertices&#45;&gt;NumberOfConnectivityIds -->
<g id="edge16" class="edge">
<title>Vertices&#45;&gt;NumberOfConnectivityIds</title>
<path fill="none" stroke="gray" d="M249.15,-370.75C259.85,-375 270.87,-381.1 278.75,-389.75 313.38,-427.79 277.57,-464.2 314.75,-499.75 315.5,-500.46 316.26,-501.16 317.04,-501.84"/>
<polygon fill="gray" stroke="gray" points="314.61,-504.39 324.73,-507.52 318.77,-498.76 314.61,-504.39"/>
</g>
<!-- Connectivity -->
<g id="node12" class="node">
<title>Connectivity</title>
<path fill="lightgrey" stroke="black" d="M373.62,-453.75C373.62,-453.75 451.88,-453.75 451.88,-453.75 457.88,-453.75 463.88,-459.75 463.88,-465.75 463.88,-465.75 463.88,-477.75 463.88,-477.75 463.88,-483.75 457.88,-489.75 451.88,-489.75 451.88,-489.75 373.62,-489.75 373.62,-489.75 367.62,-489.75 361.62,-483.75 361.62,-477.75 361.62,-477.75 361.62,-465.75 361.62,-465.75 361.62,-459.75 367.62,-453.75 373.62,-453.75"/>
<text xml:space="preserve" text-anchor="middle" x="412.75" y="-467.45" font-family="Helvetica,sans-Serif" font-size="14.00">Connectivity</text>
</g>
<!-- Vertices&#45;&gt;Connectivity -->
<g id="edge17" class="edge">
<title>Vertices&#45;&gt;Connectivity</title>
<path fill="none" stroke="gray" d="M249.23,-372.6C259.46,-376.87 270.18,-382.52 278.75,-389.75 301.08,-408.59 291.17,-427.51 314.75,-444.75 325.23,-452.41 337.79,-457.9 350.34,-461.83"/>
<polygon fill="gray" stroke="gray" points="349.29,-465.17 359.86,-464.49 351.17,-458.43 349.29,-465.17"/>
</g>
<!-- Offsets -->
<g id="node13" class="node">
<title>Offsets</title>
<path fill="lightgrey" stroke="black" d="M392,-398.75C392,-398.75 433.5,-398.75 433.5,-398.75 439.5,-398.75 445.5,-404.75 445.5,-410.75 445.5,-410.75 445.5,-422.75 445.5,-422.75 445.5,-428.75 439.5,-434.75 433.5,-434.75 433.5,-434.75 392,-434.75 392,-434.75 386,-434.75 380,-428.75 380,-422.75 380,-422.75 380,-410.75 380,-410.75 380,-404.75 386,-398.75 392,-398.75"/>
<text xml:space="preserve" text-anchor="middle" x="412.75" y="-412.45" font-family="Helvetica,sans-Serif" font-size="14.00">Offsets</text>
</g>
<!-- Vertices&#45;&gt;Offsets -->
<g id="edge19" class="edge">
<title>Vertices&#45;&gt;Offsets</title>
<path fill="none" stroke="gray" d="M249.21,-371.47C268.52,-376.86 292.97,-383.68 314.75,-389.75 332.57,-394.72 352.23,-400.19 369.17,-404.9"/>
<polygon fill="gray" stroke="gray" points="367.83,-408.16 378.4,-407.47 369.7,-401.42 367.83,-408.16"/>
</g>
<!-- NumberOfCells -->
<g id="node14" class="node">
<title>NumberOfCells</title>
<path fill="lightgrey" stroke="black" d="M363.88,-343.75C363.88,-343.75 461.62,-343.75 461.62,-343.75 467.62,-343.75 473.62,-349.75 473.62,-355.75 473.62,-355.75 473.62,-367.75 473.62,-367.75 473.62,-373.75 467.62,-379.75 461.62,-379.75 461.62,-379.75 363.88,-379.75 363.88,-379.75 357.88,-379.75 351.88,-373.75 351.88,-367.75 351.88,-367.75 351.88,-355.75 351.88,-355.75 351.88,-349.75 357.88,-343.75 363.88,-343.75"/>
<text xml:space="preserve" text-anchor="middle" x="412.75" y="-357.45" font-family="Helvetica,sans-Serif" font-size="14.00">NumberOfCells</text>
</g>
<!-- Vertices&#45;&gt;NumberOfCells -->
<g id="edge18" class="edge">
<title>Vertices&#45;&gt;NumberOfCells</title>
<path fill="none" stroke="gray" d="M249.21,-361.75C274.44,-361.75 309.43,-361.75 340.49,-361.75"/>
<polygon fill="gray" stroke="gray" points="340.21,-365.25 350.21,-361.75 340.21,-358.25 340.21,-365.25"/>
</g>
<!-- LinesEtc -->
<g id="node18" class="node">
<title>LinesEtc</title>
<path fill="lightgrey" stroke="black" d="M397.75,-288.75C397.75,-288.75 427.75,-288.75 427.75,-288.75 433.75,-288.75 439.75,-294.75 439.75,-300.75 439.75,-300.75 439.75,-312.75 439.75,-312.75 439.75,-318.75 433.75,-324.75 427.75,-324.75 427.75,-324.75 397.75,-324.75 397.75,-324.75 391.75,-324.75 385.75,-318.75 385.75,-312.75 385.75,-312.75 385.75,-300.75 385.75,-300.75 385.75,-294.75 391.75,-288.75 397.75,-288.75"/>
<text xml:space="preserve" text-anchor="middle" x="412.75" y="-302.45" font-family="Helvetica,sans-Serif" font-size="14.00">...</text>
</g>
<!-- Lines&#45;&gt;LinesEtc -->
<g id="edge13" class="edge">
<title>Lines&#45;&gt;LinesEtc</title>
<path fill="none" stroke="gray" d="M240.58,-306.75C274.8,-306.75 334.91,-306.75 374.02,-306.75"/>
<polygon fill="gray" stroke="gray" points="373.92,-310.25 383.92,-306.75 373.92,-303.25 373.92,-310.25"/>
</g>
<!-- PolygonsEtc -->
<g id="node19" class="node">
<title>PolygonsEtc</title>
<path fill="lightgrey" stroke="black" d="M397.75,-233.75C397.75,-233.75 427.75,-233.75 427.75,-233.75 433.75,-233.75 439.75,-239.75 439.75,-245.75 439.75,-245.75 439.75,-257.75 439.75,-257.75 439.75,-263.75 433.75,-269.75 427.75,-269.75 427.75,-269.75 397.75,-269.75 397.75,-269.75 391.75,-269.75 385.75,-263.75 385.75,-257.75 385.75,-257.75 385.75,-245.75 385.75,-245.75 385.75,-239.75 391.75,-233.75 397.75,-233.75"/>
<text xml:space="preserve" text-anchor="middle" x="412.75" y="-247.45" font-family="Helvetica,sans-Serif" font-size="14.00">...</text>
</g>
<!-- Polygons&#45;&gt;PolygonsEtc -->
<g id="edge14" class="edge">
<title>Polygons&#45;&gt;PolygonsEtc</title>
<path fill="none" stroke="gray" d="M252.9,-251.75C287.98,-251.75 339.45,-251.75 374.21,-251.75"/>
<polygon fill="gray" stroke="gray" points="373.8,-255.25 383.8,-251.75 373.8,-248.25 373.8,-255.25"/>
</g>
<!-- StripsEtc -->
<g id="node20" class="node">
<title>StripsEtc</title>
<path fill="lightgrey" stroke="black" d="M397.75,-178.75C397.75,-178.75 427.75,-178.75 427.75,-178.75 433.75,-178.75 439.75,-184.75 439.75,-190.75 439.75,-190.75 439.75,-202.75 439.75,-202.75 439.75,-208.75 433.75,-214.75 427.75,-214.75 427.75,-214.75 397.75,-214.75 397.75,-214.75 391.75,-214.75 385.75,-208.75 385.75,-202.75 385.75,-202.75 385.75,-190.75 385.75,-190.75 385.75,-184.75 391.75,-178.75 397.75,-178.75"/>
<text xml:space="preserve" text-anchor="middle" x="412.75" y="-192.45" font-family="Helvetica,sans-Serif" font-size="14.00">...</text>
</g>
<!-- Strips&#45;&gt;StripsEtc -->
<g id="edge15" class="edge">
<title>Strips&#45;&gt;StripsEtc</title>
<path fill="none" stroke="gray" d="M241.82,-196.75C276.28,-196.75 335.56,-196.75 374.2,-196.75"/>
<polygon fill="gray" stroke="gray" points="373.97,-200.25 383.97,-196.75 373.97,-193.25 373.97,-200.25"/>
</g>
<!-- FieldArrayName -->
<g id="node15" class="node">
<title>FieldArrayName</title>
<path fill="lightgrey" stroke="black" d="M362,-123.75C362,-123.75 463.5,-123.75 463.5,-123.75 469.5,-123.75 475.5,-129.75 475.5,-135.75 475.5,-135.75 475.5,-147.75 475.5,-147.75 475.5,-153.75 469.5,-159.75 463.5,-159.75 463.5,-159.75 362,-159.75 362,-159.75 356,-159.75 350,-153.75 350,-147.75 350,-147.75 350,-135.75 350,-135.75 350,-129.75 356,-123.75 362,-123.75"/>
<text xml:space="preserve" text-anchor="middle" x="412.75" y="-137.45" font-family="Helvetica,sans-Serif" font-size="14.00">FieldArrayName</text>
</g>
<!-- FieldData&#45;&gt;FieldArrayName -->
<g id="edge10" class="edge">
<title>FieldData&#45;&gt;FieldArrayName</title>
<path fill="none" stroke="gray" d="M253.37,-141.75C277.57,-141.75 309.44,-141.75 338.24,-141.75"/>
<polygon fill="gray" stroke="gray" points="338.01,-145.25 348.01,-141.75 338.01,-138.25 338.01,-145.25"/>
</g>
<!-- PointArrayName -->
<g id="node16" class="node">
<title>PointArrayName</title>
<path fill="lightgrey" stroke="black" d="M360.5,-65.75C360.5,-65.75 465,-65.75 465,-65.75 471,-65.75 477,-71.75 477,-77.75 477,-77.75 477,-89.75 477,-89.75 477,-95.75 471,-101.75 465,-101.75 465,-101.75 360.5,-101.75 360.5,-101.75 354.5,-101.75 348.5,-95.75 348.5,-89.75 348.5,-89.75 348.5,-77.75 348.5,-77.75 348.5,-71.75 354.5,-65.75 360.5,-65.75"/>
<text xml:space="preserve" text-anchor="middle" x="412.75" y="-79.45" font-family="Helvetica,sans-Serif" font-size="14.00">PointArrayName</text>
</g>
<!-- PointData&#45;&gt;PointArrayName -->
<g id="edge11" class="edge">
<title>PointData&#45;&gt;PointArrayName</title>
<path fill="none" stroke="gray" d="M258.18,-83.75C281.33,-83.75 310.4,-83.75 336.99,-83.75"/>
<polygon fill="gray" stroke="gray" points="336.7,-87.25 346.7,-83.75 336.7,-80.25 336.7,-87.25"/>
</g>
<!-- CellArrayName -->
<g id="node17" class="node">
<title>CellArrayName</title>
<path fill="lightgrey" stroke="black" d="M365,-3.75C365,-3.75 460.5,-3.75 460.5,-3.75 466.5,-3.75 472.5,-9.75 472.5,-15.75 472.5,-15.75 472.5,-27.75 472.5,-27.75 472.5,-33.75 466.5,-39.75 460.5,-39.75 460.5,-39.75 365,-39.75 365,-39.75 359,-39.75 353,-33.75 353,-27.75 353,-27.75 353,-15.75 353,-15.75 353,-9.75 359,-3.75 365,-3.75"/>
<text xml:space="preserve" text-anchor="middle" x="412.75" y="-17.45" font-family="Helvetica,sans-Serif" font-size="14.00">CellArrayName</text>
</g>
<!-- CellData&#45;&gt;CellArrayName -->
<g id="edge12" class="edge">
<title>CellData&#45;&gt;CellArrayName</title>
<path fill="none" stroke="gray" d="M258.18,-21.75C282.63,-21.75 313.68,-21.75 341.45,-21.75"/>
<polygon fill="gray" stroke="gray" points="341.21,-25.25 351.21,-21.75 341.21,-18.25 341.21,-25.25"/>
</g>
</g>
</svg>
