<?xml version="1.0" encoding="UTF-8" standalone="no"?>
<!DOCTYPE svg PUBLIC "-//W3C//DTD SVG 1.1//EN"
 "http://www.w3.org/Graphics/SVG/1.1/DTD/svg11.dtd">
<!-- Generated by graphviz version 14.1.2 (20260126.1125)
 -->
<!-- Title: G Pages: 1 -->
<svg width="374pt" height="52pt"
 viewBox="0.00 0.00 374.00 52.00" xmlns="http://www.w3.org/2000/svg" xmlns:xlink="http://www.w3.org/1999/xlink">
<g id="graph0" class="graph" transform="scale(1 1) rotate(0) translate(4 47.5)">
<title>G</title>
<!-- Group -->
<g id="node1" class="node">
<title>Group</title>
<path fill="lightblue" stroke="black" d="M12,-0.5C12,-0.5 95.5,-0.5 95.5,-0.5 101.5,-0.5 107.5,-6.5 107.5,-12.5 107.5,-12.5 107.5,-31 107.5,-31 107.5,-37 101.5,-43 95.5,-43 95.5,-43 12,-43 12,-43 6,-43 0,-37 0,-31 0,-31 0,-12.5 0,-12.5 0,-6.5 6,-0.5 12,-0.5"/>
<text xml:space="preserve" text-anchor="middle" x="53.75" y="-25.7" font-family="Helvetica,sans-Serif" font-size="14.00">GroupName</text>
<text xml:space="preserve" text-anchor="middle" x="53.75" y="-8.45" font-family="Helvetica,sans-Serif" font-size="14.00">attribute1, ...</text>
</g>
<!-- Dataset -->
<g id="node2" class="node">
<title>Dataset</title>
<path fill="lightgrey" stroke="black" d="M137.88,-3.75C137.88,-3.75 223.62,-3.75 223.62,-3.75 229.62,-3.75 235.62,-9.75 235.62,-15.75 235.62,-15.75 235.62,-27.75 235.62,-27.75 235.62,-33.75 229.62,-39.75 223.62,-39.75 223.62,-39.75 137.88,-39.75 137.88,-39.75 131.88,-39.75 125.88,-33.75 125.88,-27.75 125.88,-27.75 125.88,-15.75 125.88,-15.75 125.88,-9.75 131.88,-3.75 137.88,-3.75"/>
<text xml:space="preserve" text-anchor="middle" x="180.75" y="-17.07" font-family="Helvetica,sans-Serif" font-size="14.00">DatasetName</text>
</g>
<!-- SymLink -->
<g id="node3" class="node">
<title>SymLink</title>
<path fill="#cd96cd" stroke="black" d="M265.75,-3.75C265.75,-3.75 353.75,-3.75 353.75,-3.75 359.75,-3.75 365.75,-9.75 365.75,-15.75 365.75,-15.75 365.75,-27.75 365.75,-27.75 365.75,-33.75 359.75,-39.75 353.75,-39.75 353.75,-39.75 265.75,-39.75 265.75,-39.75 259.75,-39.75 253.75,-33.75 253.75,-27.75 253.75,-27.75 253.75,-15.75 253.75,-15.75 253.75,-9.75 259.75,-3.75 265.75,-3.75"/>
<text xml:space="preserve" text-anchor="middle" x="309.75" y="-17.07" font-family="Helvetica,sans-Serif" font-size="14.00">Symbolic Link</text>
</g>
</g>
</svg>
