<?xml version="1.0" encoding="UTF-8" standalone="no"?>
<!DOCTYPE svg PUBLIC "-//W3C//DTD SVG 1.1//EN"
 "http://www.w3.org/Graphics/SVG/1.1/DTD/svg11.dtd">
<!-- Generated by graphviz version 14.1.2 (20260126.1125)
 -->
<!-- Title: G Pages: 1 -->
<svg width="517pt" height="650pt"
 viewBox="0.00 0.00 517.00 650.00" xmlns="http://www.w3.org/2000/svg" xmlns:xlink="http://www.w3.org/1999/xlink">
<g id="graph0" class="graph" transform="scale(1 1) rotate(0) translate(4 646)">
<title>G</title>
<!-- VTKHDF -->
<g id="node1" class="node">
<title>VTKHDF</title>
<path fill="lightblue" stroke="black" d="M12,-354.25C12,-354.25 100,-354.25 100,-354.25 106,-354.25 112,-360.25 112,-366.25 112,-366.25 112,-384.75 112,-384.75 112,-390.75 106,-396.75 100,-396.75 100,-396.75 12,-396.75 12,-396.75 6,-396.75 0,-390.75 0,-384.75 0,-384.75 0,-366.25 0,-366.25 0,-360.25 6,-354.25 12,-354.25"/>
<text xml:space="preserve" text-anchor="middle" x="56" y="-379.45" font-family="Helvetica,sans-Serif" font-size="14.00">VTKHDF</text>
<text xml:space="preserve" text-anchor="middle" x="56" y="-362.2" font-family="Helvetica,sans-Serif" font-size="14.00"> Version, Type</text>
</g>
<!-- NumberOfConnectivityIds -->
<g id="node2" class="node">
<title>NumberOfConnectivityIds</title>
<path fill="lightgrey" stroke="black" d="M160,-605.5C160,-605.5 332,-605.5 332,-605.5 338,-605.5 344,-611.5 344,-617.5 344,-617.5 344,-629.5 344,-629.5 344,-635.5 338,-641.5 332,-641.5 332,-641.5 160,-641.5 160,-641.5 154,-641.5 148,-635.5 148,-629.5 148,-629.5 148,-617.5 148,-617.5 148,-611.5 154,-605.5 160,-605.5"/>
<text xml:space="preserve" text-anchor="middle" x="246" y="-619.2" font-family="Helvetica,sans-Serif" font-size="14.00">NumberOfConnectivityIds</text>
</g>
<!-- VTKHDF&#45;&gt;NumberOfConnectivityIds -->
<g id="edge1" class="edge">
<title>VTKHDF&#45;&gt;NumberOfConnectivityIds</title>
<path fill="none" stroke="gray" d="M59.58,-397C66.04,-441.14 87.02,-542.38 148,-596.5 148.92,-597.31 149.85,-598.1 150.81,-598.86"/>
<polygon fill="gray" stroke="gray" points="148.47,-601.5 158.69,-604.27 152.43,-595.73 148.47,-601.5"/>
</g>
<!-- NumberOfPoints -->
<g id="node3" class="node">
<title>NumberOfPoints</title>
<path fill="lightgrey" stroke="black" d="M192.62,-550.5C192.62,-550.5 299.38,-550.5 299.38,-550.5 305.38,-550.5 311.38,-556.5 311.38,-562.5 311.38,-562.5 311.38,-574.5 311.38,-574.5 311.38,-580.5 305.38,-586.5 299.38,-586.5 299.38,-586.5 192.62,-586.5 192.62,-586.5 186.62,-586.5 180.62,-580.5 180.62,-574.5 180.62,-574.5 180.62,-562.5 180.62,-562.5 180.62,-556.5 186.62,-550.5 192.62,-550.5"/>
<text xml:space="preserve" text-anchor="middle" x="246" y="-564.2" font-family="Helvetica,sans-Serif" font-size="14.00">NumberOfPoints</text>
</g>
<!-- VTKHDF&#45;&gt;NumberOfPoints -->
<g id="edge2" class="edge">
<title>VTKHDF&#45;&gt;NumberOfPoints</title>
<path fill="none" stroke="gray" d="M62.86,-397.14C73.63,-432.72 99.97,-503.42 148,-541.5 154.45,-546.61 161.81,-550.76 169.53,-554.12"/>
<polygon fill="gray" stroke="gray" points="168.22,-557.37 178.81,-557.69 170.73,-550.84 168.22,-557.37"/>
</g>
<!-- NumberOfCells -->
<g id="node4" class="node">
<title>NumberOfCells</title>
<path fill="lightgrey" stroke="black" d="M197.12,-495.5C197.12,-495.5 294.88,-495.5 294.88,-495.5 300.88,-495.5 306.88,-501.5 306.88,-507.5 306.88,-507.5 306.88,-519.5 306.88,-519.5 306.88,-525.5 300.88,-531.5 294.88,-531.5 294.88,-531.5 197.12,-531.5 197.12,-531.5 191.12,-531.5 185.12,-525.5 185.12,-519.5 185.12,-519.5 185.12,-507.5 185.12,-507.5 185.12,-501.5 191.12,-495.5 197.12,-495.5"/>
<text xml:space="preserve" text-anchor="middle" x="246" y="-509.2" font-family="Helvetica,sans-Serif" font-size="14.00">NumberOfCells</text>
</g>
<!-- VTKHDF&#45;&gt;NumberOfCells -->
<g id="edge3" class="edge">
<title>VTKHDF&#45;&gt;NumberOfCells</title>
<path fill="none" stroke="gray" d="M68.89,-396.83C84.03,-422.01 112.51,-463.36 148,-486.5 155.95,-491.68 164.88,-495.88 174.03,-499.28"/>
<polygon fill="gray" stroke="gray" points="172.79,-502.55 183.39,-502.43 175.03,-495.92 172.79,-502.55"/>
</g>
<!-- Points -->
<g id="node5" class="node">
<title>Points</title>
<path fill="lightgrey" stroke="black" d="M229,-440.5C229,-440.5 263,-440.5 263,-440.5 269,-440.5 275,-446.5 275,-452.5 275,-452.5 275,-464.5 275,-464.5 275,-470.5 269,-476.5 263,-476.5 263,-476.5 229,-476.5 229,-476.5 223,-476.5 217,-470.5 217,-464.5 217,-464.5 217,-452.5 217,-452.5 217,-446.5 223,-440.5 229,-440.5"/>
<text xml:space="preserve" text-anchor="middle" x="246" y="-454.2" font-family="Helvetica,sans-Serif" font-size="14.00">Points</text>
</g>
<!-- VTKHDF&#45;&gt;Points -->
<g id="edge4" class="edge">
<title>VTKHDF&#45;&gt;Points</title>
<path fill="none" stroke="gray" d="M87.4,-397.2C104.55,-408.65 126.75,-422.22 148,-431.5 166.35,-439.51 187.71,-445.76 205.7,-450.22"/>
<polygon fill="gray" stroke="gray" points="204.68,-453.57 215.22,-452.48 206.3,-446.76 204.68,-453.57"/>
</g>
<!-- Types -->
<g id="node6" class="node">
<title>Types</title>
<path fill="lightgrey" stroke="black" d="M230.5,-385.5C230.5,-385.5 261.5,-385.5 261.5,-385.5 267.5,-385.5 273.5,-391.5 273.5,-397.5 273.5,-397.5 273.5,-409.5 273.5,-409.5 273.5,-415.5 267.5,-421.5 261.5,-421.5 261.5,-421.5 230.5,-421.5 230.5,-421.5 224.5,-421.5 218.5,-415.5 218.5,-409.5 218.5,-409.5 218.5,-397.5 218.5,-397.5 218.5,-391.5 224.5,-385.5 230.5,-385.5"/>
<text xml:space="preserve" text-anchor="middle" x="246" y="-399.2" font-family="Helvetica,sans-Serif" font-size="14.00">Types</text>
</g>
<!-- VTKHDF&#45;&gt;Types -->
<g id="edge5" class="edge">
<title>VTKHDF&#45;&gt;Types</title>
<path fill="none" stroke="gray" d="M112.39,-383.75C142.77,-388.27 179.66,-393.77 206.82,-397.81"/>
<polygon fill="gray" stroke="gray" points="206.27,-401.27 216.68,-399.28 207.3,-394.35 206.27,-401.27"/>
</g>
<!-- Connectivity -->
<g id="node7" class="node">
<title>Connectivity</title>
<path fill="lightgrey" stroke="black" d="M206.88,-330.5C206.88,-330.5 285.12,-330.5 285.12,-330.5 291.12,-330.5 297.12,-336.5 297.12,-342.5 297.12,-342.5 297.12,-354.5 297.12,-354.5 297.12,-360.5 291.12,-366.5 285.12,-366.5 285.12,-366.5 206.88,-366.5 206.88,-366.5 200.88,-366.5 194.88,-360.5 194.88,-354.5 194.88,-354.5 194.88,-342.5 194.88,-342.5 194.88,-336.5 200.88,-330.5 206.88,-330.5"/>
<text xml:space="preserve" text-anchor="middle" x="246" y="-344.2" font-family="Helvetica,sans-Serif" font-size="14.00">Connectivity</text>
</g>
<!-- VTKHDF&#45;&gt;Connectivity -->
<g id="edge6" class="edge">
<title>VTKHDF&#45;&gt;Connectivity</title>
<path fill="none" stroke="gray" d="M112.39,-367.55C134.63,-364.35 160.35,-360.66 183.2,-357.38"/>
<polygon fill="gray" stroke="gray" points="183.6,-360.85 193,-355.97 182.6,-353.93 183.6,-360.85"/>
</g>
<!-- Offsets -->
<g id="node8" class="node">
<title>Offsets</title>
<path fill="lightgrey" stroke="black" d="M225.25,-275.5C225.25,-275.5 266.75,-275.5 266.75,-275.5 272.75,-275.5 278.75,-281.5 278.75,-287.5 278.75,-287.5 278.75,-299.5 278.75,-299.5 278.75,-305.5 272.75,-311.5 266.75,-311.5 266.75,-311.5 225.25,-311.5 225.25,-311.5 219.25,-311.5 213.25,-305.5 213.25,-299.5 213.25,-299.5 213.25,-287.5 213.25,-287.5 213.25,-281.5 219.25,-275.5 225.25,-275.5"/>
<text xml:space="preserve" text-anchor="middle" x="246" y="-289.2" font-family="Helvetica,sans-Serif" font-size="14.00">Offsets</text>
</g>
<!-- VTKHDF&#45;&gt;Offsets -->
<g id="edge7" class="edge">
<title>VTKHDF&#45;&gt;Offsets</title>
<path fill="none" stroke="gray" d="M88.79,-353.92C105.8,-343.08 127.43,-330.4 148,-321.5 165.16,-314.08 184.85,-307.98 201.99,-303.39"/>
<polygon fill="gray" stroke="gray" points="202.56,-306.86 211.37,-300.97 200.81,-300.08 202.56,-306.86"/>
</g>
<!-- FieldData -->
<g id="node9" class="node">
<title>FieldData</title>
<path fill="lightblue" stroke="black" d="M218.12,-220.5C218.12,-220.5 273.88,-220.5 273.88,-220.5 279.88,-220.5 285.88,-226.5 285.88,-232.5 285.88,-232.5 285.88,-244.5 285.88,-244.5 285.88,-250.5 279.88,-256.5 273.88,-256.5 273.88,-256.5 218.12,-256.5 218.12,-256.5 212.12,-256.5 206.12,-250.5 206.12,-244.5 206.12,-244.5 206.12,-232.5 206.12,-232.5 206.12,-226.5 212.12,-220.5 218.12,-220.5"/>
<text xml:space="preserve" text-anchor="middle" x="246" y="-234.2" font-family="Helvetica,sans-Serif" font-size="14.00">FieldData</text>
</g>
<!-- VTKHDF&#45;&gt;FieldData -->
<g id="edge8" class="edge">
<title>VTKHDF&#45;&gt;FieldData</title>
<path fill="none" stroke="gray" d="M69.3,-354.18C84.63,-329.48 113.11,-289.26 148,-266.5 162.07,-257.32 179.21,-251.09 195.14,-246.88"/>
<polygon fill="gray" stroke="gray" points="195.55,-250.38 204.46,-244.64 193.92,-243.58 195.55,-250.38"/>
</g>
<!-- PointData -->
<g id="node10" class="node">
<title>PointData</title>
<path fill="lightblue" stroke="black" d="M183.62,-159.25C183.62,-159.25 308.38,-159.25 308.38,-159.25 314.38,-159.25 320.38,-165.25 320.38,-171.25 320.38,-171.25 320.38,-189.75 320.38,-189.75 320.38,-195.75 314.38,-201.75 308.38,-201.75 308.38,-201.75 183.62,-201.75 183.62,-201.75 177.62,-201.75 171.62,-195.75 171.62,-189.75 171.62,-189.75 171.62,-171.25 171.62,-171.25 171.62,-165.25 177.62,-159.25 183.62,-159.25"/>
<text xml:space="preserve" text-anchor="middle" x="246" y="-184.45" font-family="Helvetica,sans-Serif" font-size="14.00">PointData</text>
<text xml:space="preserve" text-anchor="middle" x="246" y="-167.2" font-family="Helvetica,sans-Serif" font-size="14.00">Scalars, Vectors, ...</text>
</g>
<!-- VTKHDF&#45;&gt;PointData -->
<g id="edge9" class="edge">
<title>VTKHDF&#45;&gt;PointData</title>
<path fill="none" stroke="gray" d="M63.28,-353.75C74.49,-318.7 101.29,-249.8 148,-211.5 152.14,-208.11 156.66,-205.08 161.41,-202.38"/>
<polygon fill="gray" stroke="gray" points="162.74,-205.63 170.08,-197.99 159.58,-199.39 162.74,-205.63"/>
</g>
<!-- CellData -->
<g id="node11" class="node">
<title>CellData</title>
<path fill="lightblue" stroke="black" d="M183.62,-52.25C183.62,-52.25 308.38,-52.25 308.38,-52.25 314.38,-52.25 320.38,-58.25 320.38,-64.25 320.38,-64.25 320.38,-82.75 320.38,-82.75 320.38,-88.75 314.38,-94.75 308.38,-94.75 308.38,-94.75 183.62,-94.75 183.62,-94.75 177.62,-94.75 171.62,-88.75 171.62,-82.75 171.62,-82.75 171.62,-64.25 171.62,-64.25 171.62,-58.25 177.62,-52.25 183.62,-52.25"/>
<text xml:space="preserve" text-anchor="middle" x="246" y="-77.45" font-family="Helvetica,sans-Serif" font-size="14.00">CellData</text>
<text xml:space="preserve" text-anchor="middle" x="246" y="-60.2" font-family="Helvetica,sans-Serif" font-size="14.00">Scalars, Vectors, ...</text>
</g>
<!-- VTKHDF&#45;&gt;CellData -->
<g id="edge10" class="edge">
<title>VTKHDF&#45;&gt;CellData</title>
<path fill="none" stroke="gray" d="M61.67,-354.02C71.72,-311.56 98.57,-215.27 148,-149.5 162.01,-130.86 181.67,-114.31 199.64,-101.46"/>
<polygon fill="gray" stroke="gray" points="201.37,-104.52 207.6,-95.94 197.38,-98.76 201.37,-104.52"/>
</g>
<!-- FieldArrayName -->
<g id="node12" class="node">
<title>FieldArrayName</title>
<path fill="lightgrey" stroke="black" d="M393.5,-275.5C393.5,-275.5 495,-275.5 495,-275.5 501,-275.5 507,-281.5 507,-287.5 507,-287.5 507,-299.5 507,-299.5 507,-305.5 501,-311.5 495,-311.5 495,-311.5 393.5,-311.5 393.5,-311.5 387.5,-311.5 381.5,-305.5 381.5,-299.5 381.5,-299.5 381.5,-287.5 381.5,-287.5 381.5,-281.5 387.5,-275.5 393.5,-275.5"/>
<text xml:space="preserve" text-anchor="middle" x="444.25" y="-289.2" font-family="Helvetica,sans-Serif" font-size="14.00">FieldArrayName</text>
</g>
<!-- FieldData&#45;&gt;FieldArrayName -->
<g id="edge11" class="edge">
<title>FieldData&#45;&gt;FieldArrayName</title>
<path fill="none" stroke="gray" d="M286.24,-249.5C310.34,-256.25 341.97,-265.12 370.51,-273.12"/>
<polygon fill="gray" stroke="gray" points="369.25,-276.4 379.82,-275.72 371.14,-269.66 369.25,-276.4"/>
</g>
<!-- FieldArrayNameEtc -->
<g id="node15" class="node">
<title>FieldArrayNameEtc</title>
<path fill="lightgrey" stroke="black" d="M429.25,-220.5C429.25,-220.5 459.25,-220.5 459.25,-220.5 465.25,-220.5 471.25,-226.5 471.25,-232.5 471.25,-232.5 471.25,-244.5 471.25,-244.5 471.25,-250.5 465.25,-256.5 459.25,-256.5 459.25,-256.5 429.25,-256.5 429.25,-256.5 423.25,-256.5 417.25,-250.5 417.25,-244.5 417.25,-244.5 417.25,-232.5 417.25,-232.5 417.25,-226.5 423.25,-220.5 429.25,-220.5"/>
<text xml:space="preserve" text-anchor="middle" x="444.25" y="-234.2" font-family="Helvetica,sans-Serif" font-size="14.00">...</text>
</g>
<!-- FieldData&#45;&gt;FieldArrayNameEtc -->
<g id="edge14" class="edge">
<title>FieldData&#45;&gt;FieldArrayNameEtc</title>
<path fill="none" stroke="gray" d="M286.24,-238.5C320.96,-238.5 371.29,-238.5 405.54,-238.5"/>
<polygon fill="gray" stroke="gray" points="405.42,-242 415.42,-238.5 405.42,-235 405.42,-242"/>
</g>
<!-- PointArrayName -->
<g id="node13" class="node">
<title>PointArrayName</title>
<path fill="lightgrey" stroke="black" d="M392,-165.5C392,-165.5 496.5,-165.5 496.5,-165.5 502.5,-165.5 508.5,-171.5 508.5,-177.5 508.5,-177.5 508.5,-189.5 508.5,-189.5 508.5,-195.5 502.5,-201.5 496.5,-201.5 496.5,-201.5 392,-201.5 392,-201.5 386,-201.5 380,-195.5 380,-189.5 380,-189.5 380,-177.5 380,-177.5 380,-171.5 386,-165.5 392,-165.5"/>
<text xml:space="preserve" text-anchor="middle" x="444.25" y="-179.2" font-family="Helvetica,sans-Serif" font-size="14.00">PointArrayName</text>
</g>
<!-- PointData&#45;&gt;PointArrayName -->
<g id="edge12" class="edge">
<title>PointData&#45;&gt;PointArrayName</title>
<path fill="none" stroke="gray" d="M320.63,-181.63C336.21,-181.86 352.67,-182.12 368.3,-182.35"/>
<polygon fill="gray" stroke="gray" points="367.94,-185.85 377.99,-182.5 368.05,-178.85 367.94,-185.85"/>
</g>
<!-- PointArrayNameEtc -->
<g id="node16" class="node">
<title>PointArrayNameEtc</title>
<path fill="lightgrey" stroke="black" d="M429.25,-110.5C429.25,-110.5 459.25,-110.5 459.25,-110.5 465.25,-110.5 471.25,-116.5 471.25,-122.5 471.25,-122.5 471.25,-134.5 471.25,-134.5 471.25,-140.5 465.25,-146.5 459.25,-146.5 459.25,-146.5 429.25,-146.5 429.25,-146.5 423.25,-146.5 417.25,-140.5 417.25,-134.5 417.25,-134.5 417.25,-122.5 417.25,-122.5 417.25,-116.5 423.25,-110.5 429.25,-110.5"/>
<text xml:space="preserve" text-anchor="middle" x="444.25" y="-124.2" font-family="Helvetica,sans-Serif" font-size="14.00">...</text>
</g>
<!-- PointData&#45;&gt;PointArrayNameEtc -->
<g id="edge15" class="edge">
<title>PointData&#45;&gt;PointArrayNameEtc</title>
<path fill="none" stroke="gray" d="M320.63,-160.99C349.61,-153.31 381.63,-144.83 405.68,-138.46"/>
<polygon fill="gray" stroke="gray" points="406.56,-141.84 415.33,-135.9 404.77,-135.07 406.56,-141.84"/>
</g>
<!-- CellArrayName -->
<g id="node14" class="node">
<title>CellArrayName</title>
<path fill="lightgrey" stroke="black" d="M396.5,-55.5C396.5,-55.5 492,-55.5 492,-55.5 498,-55.5 504,-61.5 504,-67.5 504,-67.5 504,-79.5 504,-79.5 504,-85.5 498,-91.5 492,-91.5 492,-91.5 396.5,-91.5 396.5,-91.5 390.5,-91.5 384.5,-85.5 384.5,-79.5 384.5,-79.5 384.5,-67.5 384.5,-67.5 384.5,-61.5 390.5,-55.5 396.5,-55.5"/>
<text xml:space="preserve" text-anchor="middle" x="444.25" y="-69.2" font-family="Helvetica,sans-Serif" font-size="14.00">CellArrayName</text>
</g>
<!-- CellData&#45;&gt;CellArrayName -->
<g id="edge13" class="edge">
<title>CellData&#45;&gt;CellArrayName</title>
<path fill="none" stroke="gray" d="M320.63,-73.5C337.69,-73.5 355.8,-73.5 372.72,-73.5"/>
<polygon fill="gray" stroke="gray" points="372.7,-77 382.7,-73.5 372.7,-70 372.7,-77"/>
</g>
<!-- CellArrayNameEtc -->
<g id="node17" class="node">
<title>CellArrayNameEtc</title>
<path fill="lightgrey" stroke="black" d="M429.25,-0.5C429.25,-0.5 459.25,-0.5 459.25,-0.5 465.25,-0.5 471.25,-6.5 471.25,-12.5 471.25,-12.5 471.25,-24.5 471.25,-24.5 471.25,-30.5 465.25,-36.5 459.25,-36.5 459.25,-36.5 429.25,-36.5 429.25,-36.5 423.25,-36.5 417.25,-30.5 417.25,-24.5 417.25,-24.5 417.25,-12.5 417.25,-12.5 417.25,-6.5 423.25,-0.5 429.25,-0.5"/>
<text xml:space="preserve" text-anchor="middle" x="444.25" y="-14.2" font-family="Helvetica,sans-Serif" font-size="14.00">...</text>
</g>
<!-- CellData&#45;&gt;CellArrayNameEtc -->
<g id="edge16" class="edge">
<title>CellData&#45;&gt;CellArrayNameEtc</title>
<path fill="none" stroke="gray" d="M320.63,-52.86C349.74,-44.71 381.92,-35.69 406.01,-28.94"/>
<polygon fill="gray" stroke="gray" points="406.66,-32.39 415.34,-26.32 404.77,-25.65 406.66,-32.39"/>
</g>
</g>
</svg>
