<?xml version="1.0" encoding="UTF-8" standalone="no"?>
<!DOCTYPE svg PUBLIC "-//W3C//DTD SVG 1.1//EN"
 "http://www.w3.org/Graphics/SVG/1.1/DTD/svg11.dtd">
<!-- Generated by graphviz version 14.1.2 (20260126.1125)
 -->
<!-- Title: G Pages: 1 -->
<svg width="553pt" height="540pt"
 viewBox="0.00 0.00 553.00 540.00" xmlns="http://www.w3.org/2000/svg" xmlns:xlink="http://www.w3.org/1999/xlink">
<g id="graph0" class="graph" transform="scale(1 1) rotate(0) translate(4 536)">
<title>G</title>
<!-- VTKHDF -->
<g id="node1" class="node">
<title>VTKHDF</title>
<path fill="lightblue" stroke="black" d="M12,-244.25C12,-244.25 100,-244.25 100,-244.25 106,-244.25 112,-250.25 112,-256.25 112,-256.25 112,-274.75 112,-274.75 112,-280.75 106,-286.75 100,-286.75 100,-286.75 12,-286.75 12,-286.75 6,-286.75 0,-280.75 0,-274.75 0,-274.75 0,-256.25 0,-256.25 0,-250.25 6,-244.25 12,-244.25"/>
<text xml:space="preserve" text-anchor="middle" x="56" y="-269.45" font-family="Helvetica,sans-Serif" font-size="14.00">VTKHDF</text>
<text xml:space="preserve" text-anchor="middle" x="56" y="-252.2" font-family="Helvetica,sans-Serif" font-size="14.00"> Version, Type</text>
</g>
<!-- Steps -->
<g id="node2" class="node">
<title>Steps</title>
<path fill="lightblue" stroke="black" d="M160,-244.25C160,-244.25 201.5,-244.25 201.5,-244.25 207.5,-244.25 213.5,-250.25 213.5,-256.25 213.5,-256.25 213.5,-274.75 213.5,-274.75 213.5,-280.75 207.5,-286.75 201.5,-286.75 201.5,-286.75 160,-286.75 160,-286.75 154,-286.75 148,-280.75 148,-274.75 148,-274.75 148,-256.25 148,-256.25 148,-250.25 154,-244.25 160,-244.25"/>
<text xml:space="preserve" text-anchor="middle" x="180.75" y="-269.45" font-family="Helvetica,sans-Serif" font-size="14.00">Steps</text>
<text xml:space="preserve" text-anchor="middle" x="180.75" y="-252.2" font-family="Helvetica,sans-Serif" font-size="14.00">NSteps</text>
</g>
<!-- VTKHDF&#45;&gt;Steps -->
<g id="edge1" class="edge">
<title>VTKHDF&#45;&gt;Steps</title>
<path fill="none" stroke="gray" d="M112.27,-265.5C120.3,-265.5 128.47,-265.5 136.22,-265.5"/>
<polygon fill="gray" stroke="gray" points="136.08,-269 146.08,-265.5 136.08,-262 136.08,-269"/>
</g>
<!-- PointDataOffsets -->
<g id="node3" class="node">
<title>PointDataOffsets</title>
<path fill="lightblue" stroke="black" d="M278,-495.5C278,-495.5 386.25,-495.5 386.25,-495.5 392.25,-495.5 398.25,-501.5 398.25,-507.5 398.25,-507.5 398.25,-519.5 398.25,-519.5 398.25,-525.5 392.25,-531.5 386.25,-531.5 386.25,-531.5 278,-531.5 278,-531.5 272,-531.5 266,-525.5 266,-519.5 266,-519.5 266,-507.5 266,-507.5 266,-501.5 272,-495.5 278,-495.5"/>
<text xml:space="preserve" text-anchor="middle" x="332.12" y="-509.2" font-family="Helvetica,sans-Serif" font-size="14.00">PointDataOffsets</text>
</g>
<!-- Steps&#45;&gt;PointDataOffsets -->
<g id="edge8" class="edge">
<title>Steps&#45;&gt;PointDataOffsets</title>
<path fill="none" stroke="gray" d="M182.11,-286.96C184,-330.6 194.5,-430.27 249.5,-486.5 251.55,-488.6 253.78,-490.54 256.13,-492.32"/>
<polygon fill="gray" stroke="gray" points="254.17,-495.23 264.48,-497.68 257.95,-489.33 254.17,-495.23"/>
</g>
<!-- CellDataOffsets -->
<g id="node4" class="node">
<title>CellDataOffsets</title>
<path fill="lightblue" stroke="black" d="M282.5,-440.5C282.5,-440.5 381.75,-440.5 381.75,-440.5 387.75,-440.5 393.75,-446.5 393.75,-452.5 393.75,-452.5 393.75,-464.5 393.75,-464.5 393.75,-470.5 387.75,-476.5 381.75,-476.5 381.75,-476.5 282.5,-476.5 282.5,-476.5 276.5,-476.5 270.5,-470.5 270.5,-464.5 270.5,-464.5 270.5,-452.5 270.5,-452.5 270.5,-446.5 276.5,-440.5 282.5,-440.5"/>
<text xml:space="preserve" text-anchor="middle" x="332.12" y="-454.2" font-family="Helvetica,sans-Serif" font-size="14.00">CellDataOffsets</text>
</g>
<!-- Steps&#45;&gt;CellDataOffsets -->
<g id="edge9" class="edge">
<title>Steps&#45;&gt;CellDataOffsets</title>
<path fill="none" stroke="gray" d="M184.69,-287.08C190.6,-322.26 207.19,-391.98 249.5,-431.5 252.78,-434.56 256.42,-437.28 260.28,-439.69"/>
<polygon fill="gray" stroke="gray" points="258.48,-442.7 268.95,-444.35 261.8,-436.53 258.48,-442.7"/>
</g>
<!-- FieldDataOffsets -->
<g id="node5" class="node">
<title>FieldDataOffsets</title>
<path fill="lightblue" stroke="black" d="M279.5,-385.5C279.5,-385.5 384.75,-385.5 384.75,-385.5 390.75,-385.5 396.75,-391.5 396.75,-397.5 396.75,-397.5 396.75,-409.5 396.75,-409.5 396.75,-415.5 390.75,-421.5 384.75,-421.5 384.75,-421.5 279.5,-421.5 279.5,-421.5 273.5,-421.5 267.5,-415.5 267.5,-409.5 267.5,-409.5 267.5,-397.5 267.5,-397.5 267.5,-391.5 273.5,-385.5 279.5,-385.5"/>
<text xml:space="preserve" text-anchor="middle" x="332.12" y="-399.2" font-family="Helvetica,sans-Serif" font-size="14.00">FieldDataOffsets</text>
</g>
<!-- Steps&#45;&gt;FieldDataOffsets -->
<g id="edge10" class="edge">
<title>Steps&#45;&gt;FieldDataOffsets</title>
<path fill="none" stroke="gray" d="M189.55,-287.02C199.67,-312 219.62,-352.77 249.5,-376.5 252.02,-378.5 254.7,-380.36 257.48,-382.08"/>
<polygon fill="gray" stroke="gray" points="255.53,-385 265.98,-386.7 258.87,-378.85 255.53,-385"/>
</g>
<!-- FieldDataSizes -->
<g id="node6" class="node">
<title>FieldDataSizes</title>
<path fill="lightblue" stroke="black" d="M286.25,-330.5C286.25,-330.5 378,-330.5 378,-330.5 384,-330.5 390,-336.5 390,-342.5 390,-342.5 390,-354.5 390,-354.5 390,-360.5 384,-366.5 378,-366.5 378,-366.5 286.25,-366.5 286.25,-366.5 280.25,-366.5 274.25,-360.5 274.25,-354.5 274.25,-354.5 274.25,-342.5 274.25,-342.5 274.25,-336.5 280.25,-330.5 286.25,-330.5"/>
<text xml:space="preserve" text-anchor="middle" x="332.12" y="-344.2" font-family="Helvetica,sans-Serif" font-size="14.00">FieldDataSizes</text>
</g>
<!-- Steps&#45;&gt;FieldDataSizes -->
<g id="edge11" class="edge">
<title>Steps&#45;&gt;FieldDataSizes</title>
<path fill="none" stroke="gray" d="M203.7,-287.23C216.26,-298.7 232.81,-312.27 249.5,-321.5 253.88,-323.92 258.51,-326.17 263.26,-328.26"/>
<polygon fill="gray" stroke="gray" points="261.79,-331.43 272.37,-331.98 264.43,-324.95 261.79,-331.43"/>
</g>
<!-- Values -->
<g id="node11" class="node">
<title>Values</title>
<path fill="lightgrey" stroke="black" d="M313.62,-275.5C313.62,-275.5 350.62,-275.5 350.62,-275.5 356.62,-275.5 362.62,-281.5 362.62,-287.5 362.62,-287.5 362.62,-299.5 362.62,-299.5 362.62,-305.5 356.62,-311.5 350.62,-311.5 350.62,-311.5 313.62,-311.5 313.62,-311.5 307.62,-311.5 301.62,-305.5 301.62,-299.5 301.62,-299.5 301.62,-287.5 301.62,-287.5 301.62,-281.5 307.62,-275.5 313.62,-275.5"/>
<text xml:space="preserve" text-anchor="middle" x="332.12" y="-289.2" font-family="Helvetica,sans-Serif" font-size="14.00">Values</text>
</g>
<!-- Steps&#45;&gt;Values -->
<g id="edge2" class="edge">
<title>Steps&#45;&gt;Values</title>
<path fill="none" stroke="gray" d="M213.79,-271.51C236.04,-275.68 265.88,-281.27 289.9,-285.77"/>
<polygon fill="gray" stroke="gray" points="289.21,-289.2 299.68,-287.61 290.5,-282.32 289.21,-289.2"/>
</g>
<!-- PartOffsets -->
<g id="node12" class="node">
<title>PartOffsets</title>
<path fill="lightgrey" stroke="black" d="M297.88,-220.5C297.88,-220.5 366.38,-220.5 366.38,-220.5 372.38,-220.5 378.38,-226.5 378.38,-232.5 378.38,-232.5 378.38,-244.5 378.38,-244.5 378.38,-250.5 372.38,-256.5 366.38,-256.5 366.38,-256.5 297.88,-256.5 297.88,-256.5 291.88,-256.5 285.88,-250.5 285.88,-244.5 285.88,-244.5 285.88,-232.5 285.88,-232.5 285.88,-226.5 291.88,-220.5 297.88,-220.5"/>
<text xml:space="preserve" text-anchor="middle" x="332.12" y="-234.2" font-family="Helvetica,sans-Serif" font-size="14.00">PartOffsets</text>
</g>
<!-- Steps&#45;&gt;PartOffsets -->
<g id="edge3" class="edge">
<title>Steps&#45;&gt;PartOffsets</title>
<path fill="none" stroke="gray" d="M213.79,-259.71C231.44,-256.52 253.87,-252.46 274.38,-248.76"/>
<polygon fill="gray" stroke="gray" points="274.82,-252.23 284.04,-247.01 273.58,-245.35 274.82,-252.23"/>
</g>
<!-- NumberOfParts -->
<g id="node13" class="node">
<title>NumberOfParts</title>
<path fill="lightgrey" stroke="black" d="M282.5,-165.5C282.5,-165.5 381.75,-165.5 381.75,-165.5 387.75,-165.5 393.75,-171.5 393.75,-177.5 393.75,-177.5 393.75,-189.5 393.75,-189.5 393.75,-195.5 387.75,-201.5 381.75,-201.5 381.75,-201.5 282.5,-201.5 282.5,-201.5 276.5,-201.5 270.5,-195.5 270.5,-189.5 270.5,-189.5 270.5,-177.5 270.5,-177.5 270.5,-171.5 276.5,-165.5 282.5,-165.5"/>
<text xml:space="preserve" text-anchor="middle" x="332.12" y="-179.2" font-family="Helvetica,sans-Serif" font-size="14.00">NumberOfParts</text>
</g>
<!-- Steps&#45;&gt;NumberOfParts -->
<g id="edge4" class="edge">
<title>Steps&#45;&gt;NumberOfParts</title>
<path fill="none" stroke="gray" d="M204.78,-243.86C217.27,-233 233.41,-220.32 249.5,-211.5 252.89,-209.64 256.42,-207.88 260.03,-206.2"/>
<polygon fill="gray" stroke="gray" points="261.21,-209.5 268.99,-202.32 258.43,-203.08 261.21,-209.5"/>
</g>
<!-- ConnectivityIdOffsets -->
<g id="node14" class="node">
<title>ConnectivityIdOffsets</title>
<path fill="lightgrey" stroke="black" d="M261.5,-110.5C261.5,-110.5 402.75,-110.5 402.75,-110.5 408.75,-110.5 414.75,-116.5 414.75,-122.5 414.75,-122.5 414.75,-134.5 414.75,-134.5 414.75,-140.5 408.75,-146.5 402.75,-146.5 402.75,-146.5 261.5,-146.5 261.5,-146.5 255.5,-146.5 249.5,-140.5 249.5,-134.5 249.5,-134.5 249.5,-122.5 249.5,-122.5 249.5,-116.5 255.5,-110.5 261.5,-110.5"/>
<text xml:space="preserve" text-anchor="middle" x="332.12" y="-124.2" font-family="Helvetica,sans-Serif" font-size="14.00">ConnectivityIdOffsets</text>
</g>
<!-- Steps&#45;&gt;ConnectivityIdOffsets -->
<g id="edge5" class="edge">
<title>Steps&#45;&gt;ConnectivityIdOffsets</title>
<path fill="none" stroke="gray" d="M189.88,-243.98C200.19,-219.47 220.22,-179.82 249.5,-156.5 251.21,-155.13 253,-153.83 254.84,-152.6"/>
<polygon fill="gray" stroke="gray" points="256.33,-155.78 263.16,-147.67 252.77,-149.76 256.33,-155.78"/>
</g>
<!-- CellOffsets -->
<g id="node15" class="node">
<title>CellOffsets</title>
<path fill="lightgrey" stroke="black" d="M298.62,-55.5C298.62,-55.5 365.62,-55.5 365.62,-55.5 371.62,-55.5 377.62,-61.5 377.62,-67.5 377.62,-67.5 377.62,-79.5 377.62,-79.5 377.62,-85.5 371.62,-91.5 365.62,-91.5 365.62,-91.5 298.62,-91.5 298.62,-91.5 292.62,-91.5 286.62,-85.5 286.62,-79.5 286.62,-79.5 286.62,-67.5 286.62,-67.5 286.62,-61.5 292.62,-55.5 298.62,-55.5"/>
<text xml:space="preserve" text-anchor="middle" x="332.12" y="-69.2" font-family="Helvetica,sans-Serif" font-size="14.00">CellOffsets</text>
</g>
<!-- Steps&#45;&gt;CellOffsets -->
<g id="edge6" class="edge">
<title>Steps&#45;&gt;CellOffsets</title>
<path fill="none" stroke="gray" d="M184.86,-243.94C191,-209.17 207.87,-140.65 249.5,-101.5 256.87,-94.56 266.04,-89.34 275.54,-85.41"/>
<polygon fill="gray" stroke="gray" points="276.71,-88.71 284.91,-82.01 274.32,-82.13 276.71,-88.71"/>
</g>
<!-- PointOffsets -->
<g id="node16" class="node">
<title>PointOffsets</title>
<path fill="lightgrey" stroke="black" d="M294.12,-0.5C294.12,-0.5 370.12,-0.5 370.12,-0.5 376.12,-0.5 382.12,-6.5 382.12,-12.5 382.12,-12.5 382.12,-24.5 382.12,-24.5 382.12,-30.5 376.12,-36.5 370.12,-36.5 370.12,-36.5 294.12,-36.5 294.12,-36.5 288.12,-36.5 282.12,-30.5 282.12,-24.5 282.12,-24.5 282.12,-12.5 282.12,-12.5 282.12,-6.5 288.12,-0.5 294.12,-0.5"/>
<text xml:space="preserve" text-anchor="middle" x="332.12" y="-14.2" font-family="Helvetica,sans-Serif" font-size="14.00">PointOffsets</text>
</g>
<!-- Steps&#45;&gt;PointOffsets -->
<g id="edge7" class="edge">
<title>Steps&#45;&gt;PointOffsets</title>
<path fill="none" stroke="gray" d="M182.24,-243.94C184.38,-200.62 195.33,-102.35 249.5,-46.5 255.66,-40.15 263.32,-35.24 271.47,-31.44"/>
<polygon fill="gray" stroke="gray" points="272.6,-34.76 280.56,-27.77 269.98,-28.27 272.6,-34.76"/>
</g>
<!-- PointDataArrayName -->
<g id="node7" class="node">
<title>PointDataArrayName</title>
<path fill="lightgrey" stroke="black" d="M462.75,-495.5C462.75,-495.5 532.75,-495.5 532.75,-495.5 538.75,-495.5 544.75,-501.5 544.75,-507.5 544.75,-507.5 544.75,-519.5 544.75,-519.5 544.75,-525.5 538.75,-531.5 532.75,-531.5 532.75,-531.5 462.75,-531.5 462.75,-531.5 456.75,-531.5 450.75,-525.5 450.75,-519.5 450.75,-519.5 450.75,-507.5 450.75,-507.5 450.75,-501.5 456.75,-495.5 462.75,-495.5"/>
<text xml:space="preserve" text-anchor="middle" x="497.75" y="-509.2" font-family="Helvetica,sans-Serif" font-size="14.00">ArrayName</text>
</g>
<!-- PointDataOffsets&#45;&gt;PointDataArrayName -->
<g id="edge12" class="edge">
<title>PointDataOffsets&#45;&gt;PointDataArrayName</title>
<path fill="none" stroke="gray" d="M398.73,-513.5C412.21,-513.5 426.3,-513.5 439.46,-513.5"/>
<polygon fill="gray" stroke="gray" points="439.23,-517 449.23,-513.5 439.23,-510 439.23,-517"/>
</g>
<!-- CellDataArrayName -->
<g id="node8" class="node">
<title>CellDataArrayName</title>
<path fill="lightgrey" stroke="black" d="M462.75,-440.5C462.75,-440.5 532.75,-440.5 532.75,-440.5 538.75,-440.5 544.75,-446.5 544.75,-452.5 544.75,-452.5 544.75,-464.5 544.75,-464.5 544.75,-470.5 538.75,-476.5 532.75,-476.5 532.75,-476.5 462.75,-476.5 462.75,-476.5 456.75,-476.5 450.75,-470.5 450.75,-464.5 450.75,-464.5 450.75,-452.5 450.75,-452.5 450.75,-446.5 456.75,-440.5 462.75,-440.5"/>
<text xml:space="preserve" text-anchor="middle" x="497.75" y="-454.2" font-family="Helvetica,sans-Serif" font-size="14.00">ArrayName</text>
</g>
<!-- CellDataOffsets&#45;&gt;CellDataArrayName -->
<g id="edge13" class="edge">
<title>CellDataOffsets&#45;&gt;CellDataArrayName</title>
<path fill="none" stroke="gray" d="M394.05,-458.5C408.75,-458.5 424.41,-458.5 438.96,-458.5"/>
<polygon fill="gray" stroke="gray" points="438.84,-462 448.84,-458.5 438.84,-455 438.84,-462"/>
</g>
<!-- FieldDataArrayName -->
<g id="node9" class="node">
<title>FieldDataArrayName</title>
<path fill="lightgrey" stroke="black" d="M462.75,-385.5C462.75,-385.5 532.75,-385.5 532.75,-385.5 538.75,-385.5 544.75,-391.5 544.75,-397.5 544.75,-397.5 544.75,-409.5 544.75,-409.5 544.75,-415.5 538.75,-421.5 532.75,-421.5 532.75,-421.5 462.75,-421.5 462.75,-421.5 456.75,-421.5 450.75,-415.5 450.75,-409.5 450.75,-409.5 450.75,-397.5 450.75,-397.5 450.75,-391.5 456.75,-385.5 462.75,-385.5"/>
<text xml:space="preserve" text-anchor="middle" x="497.75" y="-399.2" font-family="Helvetica,sans-Serif" font-size="14.00">ArrayName</text>
</g>
<!-- FieldDataOffsets&#45;&gt;FieldDataArrayName -->
<g id="edge14" class="edge">
<title>FieldDataOffsets&#45;&gt;FieldDataArrayName</title>
<path fill="none" stroke="gray" d="M396.86,-403.5C410.81,-403.5 425.49,-403.5 439.19,-403.5"/>
<polygon fill="gray" stroke="gray" points="438.9,-407 448.9,-403.5 438.9,-400 438.9,-407"/>
</g>
<!-- FieldDataSizeArrayName -->
<g id="node10" class="node">
<title>FieldDataSizeArrayName</title>
<path fill="lightgrey" stroke="black" d="M462.75,-330.5C462.75,-330.5 532.75,-330.5 532.75,-330.5 538.75,-330.5 544.75,-336.5 544.75,-342.5 544.75,-342.5 544.75,-354.5 544.75,-354.5 544.75,-360.5 538.75,-366.5 532.75,-366.5 532.75,-366.5 462.75,-366.5 462.75,-366.5 456.75,-366.5 450.75,-360.5 450.75,-354.5 450.75,-354.5 450.75,-342.5 450.75,-342.5 450.75,-336.5 456.75,-330.5 462.75,-330.5"/>
<text xml:space="preserve" text-anchor="middle" x="497.75" y="-344.2" font-family="Helvetica,sans-Serif" font-size="14.00">ArrayName</text>
</g>
<!-- FieldDataSizes&#45;&gt;FieldDataSizeArrayName -->
<g id="edge15" class="edge">
<title>FieldDataSizes&#45;&gt;FieldDataSizeArrayName</title>
<path fill="none" stroke="gray" d="M390.35,-348.5C406.15,-348.5 423.29,-348.5 439.11,-348.5"/>
<polygon fill="gray" stroke="gray" points="438.84,-352 448.84,-348.5 438.84,-345 438.84,-352"/>
</g>
</g>
</svg>
