<?xml version="1.0" encoding="UTF-8" standalone="no"?>
<!DOCTYPE svg PUBLIC "-//W3C//DTD SVG 1.1//EN"
 "http://www.w3.org/Graphics/SVG/1.1/DTD/svg11.dtd">
<!-- Generated by graphviz version 14.1.2 (20260126.1125)
 -->
<!-- Title: G Pages: 1 -->
<svg width="779pt" height="350pt"
 viewBox="0.00 0.00 779.00 350.00" xmlns="http://www.w3.org/2000/svg" xmlns:xlink="http://www.w3.org/1999/xlink">
<g id="graph0" class="graph" transform="scale(1 1) rotate(0) translate(4 346)">
<title>G</title>
<!-- VTKHDF -->
<g id="node1" class="node">
<title>VTKHDF</title>
<path fill="lightblue" stroke="black" d="M257.88,-299C257.88,-299 514.62,-299 514.62,-299 520.62,-299 526.62,-305 526.62,-311 526.62,-311 526.62,-329.5 526.62,-329.5 526.62,-335.5 520.62,-341.5 514.62,-341.5 514.62,-341.5 257.88,-341.5 257.88,-341.5 251.88,-341.5 245.88,-335.5 245.88,-329.5 245.88,-329.5 245.88,-311 245.88,-311 245.88,-305 251.88,-299 257.88,-299"/>
<text xml:space="preserve" text-anchor="middle" x="386.25" y="-324.2" font-family="Helvetica,sans-Serif" font-size="14.00">VTKHDF</text>
<text xml:space="preserve" text-anchor="middle" x="386.25" y="-306.95" font-family="Helvetica,sans-Serif" font-size="14.00"> Version, Type, GridDescription, Origin</text>
</g>
<!-- Level0 -->
<g id="node2" class="node">
<title>Level0</title>
<path fill="lightblue" stroke="black" d="M250.25,-219.5C250.25,-219.5 302.25,-219.5 302.25,-219.5 308.25,-219.5 314.25,-225.5 314.25,-231.5 314.25,-231.5 314.25,-250 314.25,-250 314.25,-256 308.25,-262 302.25,-262 302.25,-262 250.25,-262 250.25,-262 244.25,-262 238.25,-256 238.25,-250 238.25,-250 238.25,-231.5 238.25,-231.5 238.25,-225.5 244.25,-219.5 250.25,-219.5"/>
<text xml:space="preserve" text-anchor="middle" x="276.25" y="-244.7" font-family="Helvetica,sans-Serif" font-size="14.00">Level0</text>
<text xml:space="preserve" text-anchor="middle" x="276.25" y="-227.45" font-family="Helvetica,sans-Serif" font-size="14.00"> Spacing</text>
</g>
<!-- VTKHDF&#45;&gt;Level0 -->
<g id="edge2" class="edge">
<title>VTKHDF&#45;&gt;Level0</title>
<path fill="none" stroke="gray" d="M357.06,-298.68C344.13,-289.58 328.74,-278.73 314.88,-268.97"/>
<polygon fill="gray" stroke="gray" points="317,-266.18 306.81,-263.28 312.97,-271.9 317,-266.18"/>
</g>
<!-- Level1 -->
<g id="node3" class="node">
<title>Level1</title>
<path fill="lightblue" stroke="black" d="M360.25,-219.5C360.25,-219.5 412.25,-219.5 412.25,-219.5 418.25,-219.5 424.25,-225.5 424.25,-231.5 424.25,-231.5 424.25,-250 424.25,-250 424.25,-256 418.25,-262 412.25,-262 412.25,-262 360.25,-262 360.25,-262 354.25,-262 348.25,-256 348.25,-250 348.25,-250 348.25,-231.5 348.25,-231.5 348.25,-225.5 354.25,-219.5 360.25,-219.5"/>
<text xml:space="preserve" text-anchor="middle" x="386.25" y="-244.7" font-family="Helvetica,sans-Serif" font-size="14.00">Level1</text>
<text xml:space="preserve" text-anchor="middle" x="386.25" y="-227.45" font-family="Helvetica,sans-Serif" font-size="14.00"> Spacing</text>
</g>
<!-- VTKHDF&#45;&gt;Level1 -->
<g id="edge3" class="edge">
<title>VTKHDF&#45;&gt;Level1</title>
<path fill="none" stroke="gray" d="M386.25,-298.89C386.25,-291.12 386.25,-282.06 386.25,-273.48"/>
<polygon fill="gray" stroke="gray" points="389.75,-273.76 386.25,-263.76 382.75,-273.76 389.75,-273.76"/>
</g>
<!-- Steps -->
<g id="node4" class="node">
<title>Steps</title>
<path fill="lightblue" stroke="black" d="M462.5,-219.5C462.5,-219.5 504,-219.5 504,-219.5 510,-219.5 516,-225.5 516,-231.5 516,-231.5 516,-250 516,-250 516,-256 510,-262 504,-262 504,-262 462.5,-262 462.5,-262 456.5,-262 450.5,-256 450.5,-250 450.5,-250 450.5,-231.5 450.5,-231.5 450.5,-225.5 456.5,-219.5 462.5,-219.5"/>
<text xml:space="preserve" text-anchor="middle" x="483.25" y="-244.7" font-family="Helvetica,sans-Serif" font-size="14.00">Steps</text>
<text xml:space="preserve" text-anchor="middle" x="483.25" y="-227.45" font-family="Helvetica,sans-Serif" font-size="14.00">NSteps</text>
</g>
<!-- VTKHDF&#45;&gt;Steps -->
<g id="edge1" class="edge">
<title>VTKHDF&#45;&gt;Steps</title>
<path fill="none" stroke="gray" d="M411.99,-298.68C423.17,-289.75 436.44,-279.15 448.48,-269.53"/>
<polygon fill="gray" stroke="gray" points="450.58,-272.33 456.21,-263.36 446.21,-266.86 450.58,-272.33"/>
</g>
<!-- PointData -->
<g id="node5" class="node">
<title>PointData</title>
<path fill="lightblue" stroke="black" d="M129.88,-146.5C129.88,-146.5 188.62,-146.5 188.62,-146.5 194.62,-146.5 200.62,-152.5 200.62,-158.5 200.62,-158.5 200.62,-170.5 200.62,-170.5 200.62,-176.5 194.62,-182.5 188.62,-182.5 188.62,-182.5 129.88,-182.5 129.88,-182.5 123.88,-182.5 117.88,-176.5 117.88,-170.5 117.88,-170.5 117.88,-158.5 117.88,-158.5 117.88,-152.5 123.88,-146.5 129.88,-146.5"/>
<text xml:space="preserve" text-anchor="middle" x="159.25" y="-159.82" font-family="Helvetica,sans-Serif" font-size="14.00">PointData</text>
</g>
<!-- Level0&#45;&gt;PointData -->
<g id="edge4" class="edge">
<title>Level0&#45;&gt;PointData</title>
<path fill="none" stroke="gray" d="M243.66,-219.07C228.9,-209.7 211.4,-198.59 196.16,-188.92"/>
<polygon fill="gray" stroke="gray" points="198.12,-186.02 187.8,-183.62 194.37,-191.93 198.12,-186.02"/>
</g>
<!-- Level0Etc -->
<g id="node6" class="node">
<title>Level0Etc</title>
<path fill="lightblue" stroke="black" d="M230.25,-146.5C230.25,-146.5 260.25,-146.5 260.25,-146.5 266.25,-146.5 272.25,-152.5 272.25,-158.5 272.25,-158.5 272.25,-170.5 272.25,-170.5 272.25,-176.5 266.25,-182.5 260.25,-182.5 260.25,-182.5 230.25,-182.5 230.25,-182.5 224.25,-182.5 218.25,-176.5 218.25,-170.5 218.25,-170.5 218.25,-158.5 218.25,-158.5 218.25,-152.5 224.25,-146.5 230.25,-146.5"/>
<text xml:space="preserve" text-anchor="middle" x="245" y="-159.82" font-family="Helvetica,sans-Serif" font-size="14.00">...</text>
</g>
<!-- Level0&#45;&gt;Level0Etc -->
<g id="edge5" class="edge">
<title>Level0&#45;&gt;Level0Etc</title>
<path fill="none" stroke="gray" d="M267.61,-219.07C264.24,-210.98 260.32,-201.59 256.71,-192.95"/>
<polygon fill="gray" stroke="gray" points="260.04,-191.84 252.96,-183.96 253.58,-194.54 260.04,-191.84"/>
</g>
<!-- AMRBox -->
<g id="node7" class="node">
<title>AMRBox</title>
<path fill="lightgrey" stroke="black" d="M302.38,-146.5C302.38,-146.5 352.12,-146.5 352.12,-146.5 358.12,-146.5 364.12,-152.5 364.12,-158.5 364.12,-158.5 364.12,-170.5 364.12,-170.5 364.12,-176.5 358.12,-182.5 352.12,-182.5 352.12,-182.5 302.38,-182.5 302.38,-182.5 296.38,-182.5 290.38,-176.5 290.38,-170.5 290.38,-170.5 290.38,-158.5 290.38,-158.5 290.38,-152.5 296.38,-146.5 302.38,-146.5"/>
<text xml:space="preserve" text-anchor="middle" x="327.25" y="-159.82" font-family="Helvetica,sans-Serif" font-size="14.00">AMRBox</text>
</g>
<!-- Level0&#45;&gt;AMRBox -->
<g id="edge6" class="edge">
<title>Level0&#45;&gt;AMRBox</title>
<path fill="none" stroke="gray" d="M290.46,-219.07C296.26,-210.62 303.04,-200.75 309.18,-191.81"/>
<polygon fill="gray" stroke="gray" points="311.89,-194.04 314.67,-183.81 306.12,-190.08 311.89,-194.04"/>
</g>
<!-- Values -->
<g id="node10" class="node">
<title>Values</title>
<path fill="lightgrey" stroke="black" d="M393.75,-146.5C393.75,-146.5 430.75,-146.5 430.75,-146.5 436.75,-146.5 442.75,-152.5 442.75,-158.5 442.75,-158.5 442.75,-170.5 442.75,-170.5 442.75,-176.5 436.75,-182.5 430.75,-182.5 430.75,-182.5 393.75,-182.5 393.75,-182.5 387.75,-182.5 381.75,-176.5 381.75,-170.5 381.75,-170.5 381.75,-158.5 381.75,-158.5 381.75,-152.5 387.75,-146.5 393.75,-146.5"/>
<text xml:space="preserve" text-anchor="middle" x="412.25" y="-159.82" font-family="Helvetica,sans-Serif" font-size="14.00">Values</text>
</g>
<!-- Steps&#45;&gt;Values -->
<g id="edge9" class="edge">
<title>Steps&#45;&gt;Values</title>
<path fill="none" stroke="gray" d="M463.47,-219.07C455.05,-210.26 445.16,-199.91 436.32,-190.67"/>
<polygon fill="gray" stroke="gray" points="439.06,-188.47 429.62,-183.66 434,-193.31 439.06,-188.47"/>
</g>
<!-- Level0Offsets -->
<g id="node11" class="node">
<title>Level0Offsets</title>
<path fill="lightblue" stroke="black" d="M472.75,-146.5C472.75,-146.5 509.75,-146.5 509.75,-146.5 515.75,-146.5 521.75,-152.5 521.75,-158.5 521.75,-158.5 521.75,-170.5 521.75,-170.5 521.75,-176.5 515.75,-182.5 509.75,-182.5 509.75,-182.5 472.75,-182.5 472.75,-182.5 466.75,-182.5 460.75,-176.5 460.75,-170.5 460.75,-170.5 460.75,-158.5 460.75,-158.5 460.75,-152.5 466.75,-146.5 472.75,-146.5"/>
<text xml:space="preserve" text-anchor="middle" x="491.25" y="-159.82" font-family="Helvetica,sans-Serif" font-size="14.00">Level0</text>
</g>
<!-- Steps&#45;&gt;Level0Offsets -->
<g id="edge10" class="edge">
<title>Steps&#45;&gt;Level0Offsets</title>
<path fill="none" stroke="gray" d="M485.48,-219.07C486.32,-211.25 487.29,-202.22 488.2,-193.82"/>
<polygon fill="gray" stroke="gray" points="491.66,-194.39 489.25,-184.07 484.7,-193.64 491.66,-194.39"/>
</g>
<!-- Level1Offsets -->
<g id="node12" class="node">
<title>Level1Offsets</title>
<path fill="lightblue" stroke="black" d="M551.75,-146.5C551.75,-146.5 588.75,-146.5 588.75,-146.5 594.75,-146.5 600.75,-152.5 600.75,-158.5 600.75,-158.5 600.75,-170.5 600.75,-170.5 600.75,-176.5 594.75,-182.5 588.75,-182.5 588.75,-182.5 551.75,-182.5 551.75,-182.5 545.75,-182.5 539.75,-176.5 539.75,-170.5 539.75,-170.5 539.75,-158.5 539.75,-158.5 539.75,-152.5 545.75,-146.5 551.75,-146.5"/>
<text xml:space="preserve" text-anchor="middle" x="570.25" y="-159.82" font-family="Helvetica,sans-Serif" font-size="14.00">Level1</text>
</g>
<!-- Steps&#45;&gt;Level1Offsets -->
<g id="edge11" class="edge">
<title>Steps&#45;&gt;Level1Offsets</title>
<path fill="none" stroke="gray" d="M507.48,-219.07C518.04,-210.06 530.49,-199.44 541.5,-190.03"/>
<polygon fill="gray" stroke="gray" points="543.48,-192.95 548.82,-183.79 538.94,-187.62 543.48,-192.95"/>
</g>
<!-- PointDataArrayName -->
<g id="node8" class="node">
<title>PointDataArrayName</title>
<path fill="lightgrey" stroke="black" d="M12,-73.5C12,-73.5 116.5,-73.5 116.5,-73.5 122.5,-73.5 128.5,-79.5 128.5,-85.5 128.5,-85.5 128.5,-97.5 128.5,-97.5 128.5,-103.5 122.5,-109.5 116.5,-109.5 116.5,-109.5 12,-109.5 12,-109.5 6,-109.5 0,-103.5 0,-97.5 0,-97.5 0,-85.5 0,-85.5 0,-79.5 6,-73.5 12,-73.5"/>
<text xml:space="preserve" text-anchor="middle" x="64.25" y="-86.83" font-family="Helvetica,sans-Serif" font-size="14.00">PointArrayName</text>
</g>
<!-- PointData&#45;&gt;PointDataArrayName -->
<g id="edge7" class="edge">
<title>PointData&#45;&gt;PointDataArrayName</title>
<path fill="none" stroke="gray" d="M136.25,-146.31C124.32,-137.4 109.55,-126.36 96.5,-116.6"/>
<polygon fill="gray" stroke="gray" points="98.68,-113.86 88.58,-110.68 94.49,-119.47 98.68,-113.86"/>
</g>
<!-- PointDataArrayNameEtc -->
<g id="node9" class="node">
<title>PointDataArrayNameEtc</title>
<path fill="lightgrey" stroke="black" d="M158.25,-73.5C158.25,-73.5 188.25,-73.5 188.25,-73.5 194.25,-73.5 200.25,-79.5 200.25,-85.5 200.25,-85.5 200.25,-97.5 200.25,-97.5 200.25,-103.5 194.25,-109.5 188.25,-109.5 188.25,-109.5 158.25,-109.5 158.25,-109.5 152.25,-109.5 146.25,-103.5 146.25,-97.5 146.25,-97.5 146.25,-85.5 146.25,-85.5 146.25,-79.5 152.25,-73.5 158.25,-73.5"/>
<text xml:space="preserve" text-anchor="middle" x="173" y="-86.83" font-family="Helvetica,sans-Serif" font-size="14.00">...</text>
</g>
<!-- PointData&#45;&gt;PointDataArrayNameEtc -->
<g id="edge8" class="edge">
<title>PointData&#45;&gt;PointDataArrayNameEtc</title>
<path fill="none" stroke="gray" d="M162.64,-146.31C164.15,-138.64 165.98,-129.39 167.68,-120.74"/>
<polygon fill="gray" stroke="gray" points="171.1,-121.5 169.6,-111.01 164.23,-120.15 171.1,-121.5"/>
</g>
<!-- PointDataOffsets -->
<g id="node13" class="node">
<title>PointDataOffsets</title>
<path fill="lightblue" stroke="black" d="M258.12,-73.5C258.12,-73.5 366.38,-73.5 366.38,-73.5 372.38,-73.5 378.38,-79.5 378.38,-85.5 378.38,-85.5 378.38,-97.5 378.38,-97.5 378.38,-103.5 372.38,-109.5 366.38,-109.5 366.38,-109.5 258.12,-109.5 258.12,-109.5 252.12,-109.5 246.12,-103.5 246.12,-97.5 246.12,-97.5 246.12,-85.5 246.12,-85.5 246.12,-79.5 252.12,-73.5 258.12,-73.5"/>
<text xml:space="preserve" text-anchor="middle" x="312.25" y="-86.83" font-family="Helvetica,sans-Serif" font-size="14.00">PointDataOffsets</text>
</g>
<!-- Level0Offsets&#45;&gt;PointDataOffsets -->
<g id="edge12" class="edge">
<title>Level0Offsets&#45;&gt;PointDataOffsets</title>
<path fill="none" stroke="gray" d="M460.66,-149.58C457.83,-148.35 454.99,-147.14 452.25,-146 425.54,-134.92 395.64,-123.37 370.35,-113.86"/>
<polygon fill="gray" stroke="gray" points="371.83,-110.68 361.24,-110.44 369.37,-117.23 371.83,-110.68"/>
</g>
<!-- NumberOfAMRBoxes -->
<g id="node14" class="node">
<title>NumberOfAMRBoxes</title>
<path fill="lightgrey" stroke="black" d="M408.5,-73.5C408.5,-73.5 546,-73.5 546,-73.5 552,-73.5 558,-79.5 558,-85.5 558,-85.5 558,-97.5 558,-97.5 558,-103.5 552,-109.5 546,-109.5 546,-109.5 408.5,-109.5 408.5,-109.5 402.5,-109.5 396.5,-103.5 396.5,-97.5 396.5,-97.5 396.5,-85.5 396.5,-85.5 396.5,-79.5 402.5,-73.5 408.5,-73.5"/>
<text xml:space="preserve" text-anchor="middle" x="477.25" y="-86.83" font-family="Helvetica,sans-Serif" font-size="14.00">NumberOfAMRBoxes</text>
</g>
<!-- Level0Offsets&#45;&gt;NumberOfAMRBoxes -->
<g id="edge13" class="edge">
<title>Level0Offsets&#45;&gt;NumberOfAMRBoxes</title>
<path fill="none" stroke="gray" d="M487.86,-146.31C486.35,-138.64 484.52,-129.39 482.82,-120.74"/>
<polygon fill="gray" stroke="gray" points="486.27,-120.15 480.9,-111.01 479.4,-121.5 486.27,-120.15"/>
</g>
<!-- AMRBoxOffsets -->
<g id="node15" class="node">
<title>AMRBoxOffsets</title>
<path fill="lightgrey" stroke="black" d="M587.62,-73.5C587.62,-73.5 686.88,-73.5 686.88,-73.5 692.88,-73.5 698.88,-79.5 698.88,-85.5 698.88,-85.5 698.88,-97.5 698.88,-97.5 698.88,-103.5 692.88,-109.5 686.88,-109.5 686.88,-109.5 587.62,-109.5 587.62,-109.5 581.62,-109.5 575.62,-103.5 575.62,-97.5 575.62,-97.5 575.62,-85.5 575.62,-85.5 575.62,-79.5 581.62,-73.5 587.62,-73.5"/>
<text xml:space="preserve" text-anchor="middle" x="637.25" y="-86.83" font-family="Helvetica,sans-Serif" font-size="14.00">AMRBoxOffsets</text>
</g>
<!-- Level0Offsets&#45;&gt;AMRBoxOffsets -->
<g id="edge14" class="edge">
<title>Level0Offsets&#45;&gt;AMRBoxOffsets</title>
<path fill="none" stroke="gray" d="M522.21,-148.44C542.23,-138.71 568.64,-125.86 591.11,-114.94"/>
<polygon fill="gray" stroke="gray" points="592.62,-118.09 600.09,-110.57 589.56,-111.8 592.62,-118.09"/>
</g>
<!-- Level0OffsetsEtc -->
<g id="node16" class="node">
<title>Level0OffsetsEtc</title>
<path fill="lightgrey" stroke="black" d="M729.25,-73.5C729.25,-73.5 759.25,-73.5 759.25,-73.5 765.25,-73.5 771.25,-79.5 771.25,-85.5 771.25,-85.5 771.25,-97.5 771.25,-97.5 771.25,-103.5 765.25,-109.5 759.25,-109.5 759.25,-109.5 729.25,-109.5 729.25,-109.5 723.25,-109.5 717.25,-103.5 717.25,-97.5 717.25,-97.5 717.25,-85.5 717.25,-85.5 717.25,-79.5 723.25,-73.5 729.25,-73.5"/>
<text xml:space="preserve" text-anchor="middle" x="744" y="-86.83" font-family="Helvetica,sans-Serif" font-size="14.00">...</text>
</g>
<!-- Level0Offsets&#45;&gt;Level0OffsetsEtc -->
<g id="edge15" class="edge">
<title>Level0Offsets&#45;&gt;Level0OffsetsEtc</title>
<path fill="none" stroke="gray" d="M522.01,-149.27C525.1,-148.08 528.21,-146.96 531.25,-146 604.5,-122.82 630.02,-134.62 706.43,-110.13"/>
<polygon fill="gray" stroke="gray" points="707.21,-113.56 715.6,-107.09 705,-106.92 707.21,-113.56"/>
</g>
<!-- PointDataOffsetsArrayName -->
<g id="node17" class="node">
<title>PointDataOffsetsArrayName</title>
<path fill="lightgrey" stroke="black" d="M260,-0.5C260,-0.5 364.5,-0.5 364.5,-0.5 370.5,-0.5 376.5,-6.5 376.5,-12.5 376.5,-12.5 376.5,-24.5 376.5,-24.5 376.5,-30.5 370.5,-36.5 364.5,-36.5 364.5,-36.5 260,-36.5 260,-36.5 254,-36.5 248,-30.5 248,-24.5 248,-24.5 248,-12.5 248,-12.5 248,-6.5 254,-0.5 260,-0.5"/>
<text xml:space="preserve" text-anchor="middle" x="312.25" y="-13.82" font-family="Helvetica,sans-Serif" font-size="14.00">PointArrayName</text>
</g>
<!-- PointDataOffsets&#45;&gt;PointDataOffsetsArrayName -->
<g id="edge16" class="edge">
<title>PointDataOffsets&#45;&gt;PointDataOffsetsArrayName</title>
<path fill="none" stroke="gray" d="M312.25,-73.31C312.25,-65.73 312.25,-56.6 312.25,-48.04"/>
<polygon fill="gray" stroke="gray" points="315.75,-48.04 312.25,-38.04 308.75,-48.04 315.75,-48.04"/>
</g>
</g>
</svg>
