<?xml version="1.0" encoding="UTF-8" standalone="no"?>
<!DOCTYPE svg PUBLIC "-//W3C//DTD SVG 1.1//EN"
 "http://www.w3.org/Graphics/SVG/1.1/DTD/svg11.dtd">
<!-- Generated by graphviz version 14.1.2 (20260126.1125)
 -->
<!-- Title: G Pages: 1 -->
<svg width="946pt" height="845pt"
 viewBox="0.00 0.00 946.00 845.00" xmlns="http://www.w3.org/2000/svg" xmlns:xlink="http://www.w3.org/1999/xlink">
<g id="graph0" class="graph" transform="scale(1 1) rotate(0) translate(4 841)">
<title>G</title>
<!-- VTKHDF -->
<g id="node1" class="node">
<title>VTKHDF</title>
<path fill="lightblue" stroke="black" d="M12,-255C12,-255 361,-255 361,-255 367,-255 373,-261 373,-267 373,-267 373,-320 373,-320 373,-326 367,-332 361,-332 361,-332 12,-332 12,-332 6,-332 0,-326 0,-320 0,-320 0,-267 0,-267 0,-261 6,-255 12,-255"/>
<text xml:space="preserve" text-anchor="middle" x="186.5" y="-314.7" font-family="Helvetica,sans-Serif" font-size="14.00">VTKHDF</text>
<text xml:space="preserve" text-anchor="middle" x="186.5" y="-297.45" font-family="Helvetica,sans-Serif" font-size="14.00"> Version, Type, BranchFactor, Dimensions,</text>
<text xml:space="preserve" text-anchor="middle" x="186.5" y="-280.2" font-family="Helvetica,sans-Serif" font-size="14.00">TransposedRootIndexing, InterfaceInterceptsName,</text>
<text xml:space="preserve" text-anchor="middle" x="186.5" y="-262.95" font-family="Helvetica,sans-Serif" font-size="14.00">InterfaceNormalsName</text>
</g>
<!-- Steps -->
<g id="node2" class="node">
<title>Steps</title>
<path fill="lightblue" stroke="black" d="M455.12,-550.25C455.12,-550.25 501.12,-550.25 501.12,-550.25 507.12,-550.25 513.12,-556.25 513.12,-562.25 513.12,-562.25 513.12,-580.75 513.12,-580.75 513.12,-586.75 507.12,-592.75 501.12,-592.75 501.12,-592.75 455.12,-592.75 455.12,-592.75 449.12,-592.75 443.12,-586.75 443.12,-580.75 443.12,-580.75 443.12,-562.25 443.12,-562.25 443.12,-556.25 449.12,-550.25 455.12,-550.25"/>
<text xml:space="preserve" text-anchor="middle" x="478.12" y="-575.45" font-family="Helvetica,sans-Serif" font-size="14.00">Steps</text>
<text xml:space="preserve" text-anchor="middle" x="478.12" y="-558.2" font-family="Helvetica,sans-Serif" font-size="14.00"> NSteps</text>
</g>
<!-- VTKHDF&#45;&gt;Steps -->
<g id="edge1" class="edge">
<title>VTKHDF&#45;&gt;Steps</title>
<path fill="none" stroke="gray" d="M213.82,-332.17C251.67,-385.34 326.1,-481.27 409,-541.5 416.05,-546.62 424.12,-551.13 432.17,-554.99"/>
<polygon fill="gray" stroke="gray" points="430.73,-558.18 441.29,-559.07 433.59,-551.79 430.73,-558.18"/>
</g>
<!-- XCoordinates -->
<g id="node3" class="node">
<title>XCoordinates</title>
<path fill="lightgrey" stroke="black" d="M436.75,-495.5C436.75,-495.5 519.5,-495.5 519.5,-495.5 525.5,-495.5 531.5,-501.5 531.5,-507.5 531.5,-507.5 531.5,-519.5 531.5,-519.5 531.5,-525.5 525.5,-531.5 519.5,-531.5 519.5,-531.5 436.75,-531.5 436.75,-531.5 430.75,-531.5 424.75,-525.5 424.75,-519.5 424.75,-519.5 424.75,-507.5 424.75,-507.5 424.75,-501.5 430.75,-495.5 436.75,-495.5"/>
<text xml:space="preserve" text-anchor="middle" x="478.12" y="-509.2" font-family="Helvetica,sans-Serif" font-size="14.00">XCoordinates</text>
</g>
<!-- VTKHDF&#45;&gt;XCoordinates -->
<g id="edge2" class="edge">
<title>VTKHDF&#45;&gt;XCoordinates</title>
<path fill="none" stroke="gray" d="M223.94,-332.34C265.45,-374.79 336.91,-442.59 409,-486.5 410.99,-487.71 413.05,-488.89 415.16,-490.04"/>
<polygon fill="gray" stroke="gray" points="413.4,-493.07 423.9,-494.44 416.54,-486.82 413.4,-493.07"/>
</g>
<!-- YCoordinates -->
<g id="node4" class="node">
<title>YCoordinates</title>
<path fill="lightgrey" stroke="black" d="M437.12,-440.5C437.12,-440.5 519.12,-440.5 519.12,-440.5 525.12,-440.5 531.12,-446.5 531.12,-452.5 531.12,-452.5 531.12,-464.5 531.12,-464.5 531.12,-470.5 525.12,-476.5 519.12,-476.5 519.12,-476.5 437.12,-476.5 437.12,-476.5 431.12,-476.5 425.12,-470.5 425.12,-464.5 425.12,-464.5 425.12,-452.5 425.12,-452.5 425.12,-446.5 431.12,-440.5 437.12,-440.5"/>
<text xml:space="preserve" text-anchor="middle" x="478.12" y="-454.2" font-family="Helvetica,sans-Serif" font-size="14.00">YCoordinates</text>
</g>
<!-- VTKHDF&#45;&gt;YCoordinates -->
<g id="edge3" class="edge">
<title>VTKHDF&#45;&gt;YCoordinates</title>
<path fill="none" stroke="gray" d="M243.69,-332.45C287.51,-361.84 350.55,-402.01 409,-431.5 411.68,-432.85 414.44,-434.18 417.24,-435.48"/>
<polygon fill="gray" stroke="gray" points="415.6,-438.58 426.16,-439.45 418.45,-432.19 415.6,-438.58"/>
</g>
<!-- ZCoordinates -->
<g id="node5" class="node">
<title>ZCoordinates</title>
<path fill="lightgrey" stroke="black" d="M436,-385.5C436,-385.5 520.25,-385.5 520.25,-385.5 526.25,-385.5 532.25,-391.5 532.25,-397.5 532.25,-397.5 532.25,-409.5 532.25,-409.5 532.25,-415.5 526.25,-421.5 520.25,-421.5 520.25,-421.5 436,-421.5 436,-421.5 430,-421.5 424,-415.5 424,-409.5 424,-409.5 424,-397.5 424,-397.5 424,-391.5 430,-385.5 436,-385.5"/>
<text xml:space="preserve" text-anchor="middle" x="478.12" y="-399.2" font-family="Helvetica,sans-Serif" font-size="14.00">ZCoordinates</text>
</g>
<!-- VTKHDF&#45;&gt;ZCoordinates -->
<g id="edge4" class="edge">
<title>VTKHDF&#45;&gt;ZCoordinates</title>
<path fill="none" stroke="gray" d="M290.02,-332.44C332.97,-348.75 381.36,-367.13 418.17,-381.11"/>
<polygon fill="gray" stroke="gray" points="416.71,-384.3 427.3,-384.58 419.2,-377.75 416.71,-384.3"/>
</g>
<!-- Descriptors -->
<g id="node6" class="node">
<title>Descriptors</title>
<path fill="lightgrey" stroke="black" d="M442.38,-330.5C442.38,-330.5 513.88,-330.5 513.88,-330.5 519.88,-330.5 525.88,-336.5 525.88,-342.5 525.88,-342.5 525.88,-354.5 525.88,-354.5 525.88,-360.5 519.88,-366.5 513.88,-366.5 513.88,-366.5 442.38,-366.5 442.38,-366.5 436.38,-366.5 430.38,-360.5 430.38,-354.5 430.38,-354.5 430.38,-342.5 430.38,-342.5 430.38,-336.5 436.38,-330.5 442.38,-330.5"/>
<text xml:space="preserve" text-anchor="middle" x="478.12" y="-344.2" font-family="Helvetica,sans-Serif" font-size="14.00">Descriptors</text>
</g>
<!-- VTKHDF&#45;&gt;Descriptors -->
<g id="edge5" class="edge">
<title>VTKHDF&#45;&gt;Descriptors</title>
<path fill="none" stroke="gray" d="M373.38,-328.8C389.56,-331.87 405,-334.8 418.78,-337.42"/>
<polygon fill="gray" stroke="gray" points="417.99,-340.83 428.47,-339.26 419.29,-333.96 417.99,-340.83"/>
</g>
<!-- DescriptorsSize -->
<g id="node7" class="node">
<title>DescriptorsSize</title>
<path fill="lightgrey" stroke="black" d="M428.12,-275.5C428.12,-275.5 528.12,-275.5 528.12,-275.5 534.12,-275.5 540.12,-281.5 540.12,-287.5 540.12,-287.5 540.12,-299.5 540.12,-299.5 540.12,-305.5 534.12,-311.5 528.12,-311.5 528.12,-311.5 428.12,-311.5 428.12,-311.5 422.12,-311.5 416.12,-305.5 416.12,-299.5 416.12,-299.5 416.12,-287.5 416.12,-287.5 416.12,-281.5 422.12,-275.5 428.12,-275.5"/>
<text xml:space="preserve" text-anchor="middle" x="478.12" y="-289.2" font-family="Helvetica,sans-Serif" font-size="14.00">DescriptorsSize</text>
</g>
<!-- VTKHDF&#45;&gt;DescriptorsSize -->
<g id="edge6" class="edge">
<title>VTKHDF&#45;&gt;DescriptorsSize</title>
<path fill="none" stroke="gray" d="M373.38,-293.5C384.15,-293.5 394.59,-293.5 404.43,-293.5"/>
<polygon fill="gray" stroke="gray" points="404.18,-297 414.18,-293.5 404.18,-290 404.18,-297"/>
</g>
<!-- TreeIds -->
<g id="node8" class="node">
<title>TreeIds</title>
<path fill="lightgrey" stroke="black" d="M457.38,-220.5C457.38,-220.5 498.88,-220.5 498.88,-220.5 504.88,-220.5 510.88,-226.5 510.88,-232.5 510.88,-232.5 510.88,-244.5 510.88,-244.5 510.88,-250.5 504.88,-256.5 498.88,-256.5 498.88,-256.5 457.38,-256.5 457.38,-256.5 451.38,-256.5 445.38,-250.5 445.38,-244.5 445.38,-244.5 445.38,-232.5 445.38,-232.5 445.38,-226.5 451.38,-220.5 457.38,-220.5"/>
<text xml:space="preserve" text-anchor="middle" x="478.12" y="-234.2" font-family="Helvetica,sans-Serif" font-size="14.00">TreeIds</text>
</g>
<!-- VTKHDF&#45;&gt;TreeIds -->
<g id="edge7" class="edge">
<title>VTKHDF&#45;&gt;TreeIds</title>
<path fill="none" stroke="gray" d="M373.38,-258.2C395.76,-253.95 416.71,-249.97 433.84,-246.72"/>
<polygon fill="gray" stroke="gray" points="434.41,-250.17 443.58,-244.87 433.1,-243.3 434.41,-250.17"/>
</g>
<!-- DepthPerTree -->
<g id="node9" class="node">
<title>DepthPerTree</title>
<path fill="lightgrey" stroke="black" d="M435.62,-165.5C435.62,-165.5 520.62,-165.5 520.62,-165.5 526.62,-165.5 532.62,-171.5 532.62,-177.5 532.62,-177.5 532.62,-189.5 532.62,-189.5 532.62,-195.5 526.62,-201.5 520.62,-201.5 520.62,-201.5 435.62,-201.5 435.62,-201.5 429.62,-201.5 423.62,-195.5 423.62,-189.5 423.62,-189.5 423.62,-177.5 423.62,-177.5 423.62,-171.5 429.62,-165.5 435.62,-165.5"/>
<text xml:space="preserve" text-anchor="middle" x="478.12" y="-179.2" font-family="Helvetica,sans-Serif" font-size="14.00">DepthPerTree</text>
</g>
<!-- VTKHDF&#45;&gt;DepthPerTree -->
<g id="edge8" class="edge">
<title>VTKHDF&#45;&gt;DepthPerTree</title>
<path fill="none" stroke="gray" d="M290.02,-254.56C332.97,-238.25 381.36,-219.87 418.17,-205.89"/>
<polygon fill="gray" stroke="gray" points="419.2,-209.25 427.3,-202.42 416.71,-202.7 419.2,-209.25"/>
</g>
<!-- NumberOfTrees -->
<g id="node10" class="node">
<title>NumberOfTrees</title>
<path fill="lightgrey" stroke="black" d="M427.75,-110.5C427.75,-110.5 528.5,-110.5 528.5,-110.5 534.5,-110.5 540.5,-116.5 540.5,-122.5 540.5,-122.5 540.5,-134.5 540.5,-134.5 540.5,-140.5 534.5,-146.5 528.5,-146.5 528.5,-146.5 427.75,-146.5 427.75,-146.5 421.75,-146.5 415.75,-140.5 415.75,-134.5 415.75,-134.5 415.75,-122.5 415.75,-122.5 415.75,-116.5 421.75,-110.5 427.75,-110.5"/>
<text xml:space="preserve" text-anchor="middle" x="478.12" y="-124.2" font-family="Helvetica,sans-Serif" font-size="14.00">NumberOfTrees</text>
</g>
<!-- VTKHDF&#45;&gt;NumberOfTrees -->
<g id="edge9" class="edge">
<title>VTKHDF&#45;&gt;NumberOfTrees</title>
<path fill="none" stroke="gray" d="M243.69,-254.55C287.51,-225.16 350.55,-184.99 409,-155.5 411.68,-154.15 414.44,-152.82 417.24,-151.52"/>
<polygon fill="gray" stroke="gray" points="418.45,-154.81 426.16,-147.55 415.6,-148.42 418.45,-154.81"/>
</g>
<!-- NumberOfDepths -->
<g id="node11" class="node">
<title>NumberOfDepths</title>
<path fill="lightgrey" stroke="black" d="M421,-55.5C421,-55.5 535.25,-55.5 535.25,-55.5 541.25,-55.5 547.25,-61.5 547.25,-67.5 547.25,-67.5 547.25,-79.5 547.25,-79.5 547.25,-85.5 541.25,-91.5 535.25,-91.5 535.25,-91.5 421,-91.5 421,-91.5 415,-91.5 409,-85.5 409,-79.5 409,-79.5 409,-67.5 409,-67.5 409,-61.5 415,-55.5 421,-55.5"/>
<text xml:space="preserve" text-anchor="middle" x="478.12" y="-69.2" font-family="Helvetica,sans-Serif" font-size="14.00">NumberOfDepths</text>
</g>
<!-- VTKHDF&#45;&gt;NumberOfDepths -->
<g id="edge10" class="edge">
<title>VTKHDF&#45;&gt;NumberOfDepths</title>
<path fill="none" stroke="gray" d="M223.94,-254.66C265.45,-212.21 336.91,-144.41 409,-100.5 410.99,-99.29 413.05,-98.11 415.16,-96.96"/>
<polygon fill="gray" stroke="gray" points="416.54,-100.18 423.9,-92.56 413.4,-93.93 416.54,-100.18"/>
</g>
<!-- Mask -->
<g id="node12" class="node">
<title>Mask</title>
<path fill="lightgrey" stroke="black" d="M463.12,-0.5C463.12,-0.5 493.12,-0.5 493.12,-0.5 499.12,-0.5 505.12,-6.5 505.12,-12.5 505.12,-12.5 505.12,-24.5 505.12,-24.5 505.12,-30.5 499.12,-36.5 493.12,-36.5 493.12,-36.5 463.12,-36.5 463.12,-36.5 457.12,-36.5 451.12,-30.5 451.12,-24.5 451.12,-24.5 451.12,-12.5 451.12,-12.5 451.12,-6.5 457.12,-0.5 463.12,-0.5"/>
<text xml:space="preserve" text-anchor="middle" x="478.12" y="-14.2" font-family="Helvetica,sans-Serif" font-size="14.00">Mask</text>
</g>
<!-- VTKHDF&#45;&gt;Mask -->
<g id="edge11" class="edge">
<title>VTKHDF&#45;&gt;Mask</title>
<path fill="none" stroke="gray" d="M213.19,-254.84C250.57,-201.25 324.75,-104.33 409,-45.5 418.37,-38.96 429.55,-33.68 440.11,-29.59"/>
<polygon fill="gray" stroke="gray" points="441.15,-32.94 449.38,-26.27 438.78,-26.35 441.15,-32.94"/>
</g>
<!-- Values -->
<g id="node13" class="node">
<title>Values</title>
<path fill="lightgrey" stroke="black" d="M696.88,-800.5C696.88,-800.5 733.88,-800.5 733.88,-800.5 739.88,-800.5 745.88,-806.5 745.88,-812.5 745.88,-812.5 745.88,-824.5 745.88,-824.5 745.88,-830.5 739.88,-836.5 733.88,-836.5 733.88,-836.5 696.88,-836.5 696.88,-836.5 690.88,-836.5 684.88,-830.5 684.88,-824.5 684.88,-824.5 684.88,-812.5 684.88,-812.5 684.88,-806.5 690.88,-800.5 696.88,-800.5"/>
<text xml:space="preserve" text-anchor="middle" x="715.38" y="-814.2" font-family="Helvetica,sans-Serif" font-size="14.00">Values</text>
</g>
<!-- Steps&#45;&gt;Values -->
<g id="edge12" class="edge">
<title>Steps&#45;&gt;Values</title>
<path fill="none" stroke="gray" d="M482.74,-592.98C491.42,-637.52 517.79,-740.07 583.25,-791.5 608.6,-811.41 644.97,-817.67 672.97,-819.23"/>
<polygon fill="gray" stroke="gray" points="672.78,-822.73 682.9,-819.58 673.03,-815.73 672.78,-822.73"/>
</g>
<!-- XCoordinatesOffsets -->
<g id="node14" class="node">
<title>XCoordinatesOffsets</title>
<path fill="lightgrey" stroke="black" d="M649.25,-745.5C649.25,-745.5 781.5,-745.5 781.5,-745.5 787.5,-745.5 793.5,-751.5 793.5,-757.5 793.5,-757.5 793.5,-769.5 793.5,-769.5 793.5,-775.5 787.5,-781.5 781.5,-781.5 781.5,-781.5 649.25,-781.5 649.25,-781.5 643.25,-781.5 637.25,-775.5 637.25,-769.5 637.25,-769.5 637.25,-757.5 637.25,-757.5 637.25,-751.5 643.25,-745.5 649.25,-745.5"/>
<text xml:space="preserve" text-anchor="middle" x="715.38" y="-759.2" font-family="Helvetica,sans-Serif" font-size="14.00">XCoordinatesOffsets</text>
</g>
<!-- Steps&#45;&gt;XCoordinatesOffsets -->
<g id="edge13" class="edge">
<title>Steps&#45;&gt;XCoordinatesOffsets</title>
<path fill="none" stroke="gray" d="M486.39,-593.14C499.61,-629.02 531.17,-700.45 583.25,-736.5 595.94,-745.28 610.86,-751.32 626.01,-755.46"/>
<polygon fill="gray" stroke="gray" points="625.04,-758.82 635.58,-757.79 626.69,-752.02 625.04,-758.82"/>
</g>
<!-- YCoordinatesOffsets -->
<g id="node15" class="node">
<title>YCoordinatesOffsets</title>
<path fill="lightgrey" stroke="black" d="M649.62,-690.5C649.62,-690.5 781.12,-690.5 781.12,-690.5 787.12,-690.5 793.12,-696.5 793.12,-702.5 793.12,-702.5 793.12,-714.5 793.12,-714.5 793.12,-720.5 787.12,-726.5 781.12,-726.5 781.12,-726.5 649.62,-726.5 649.62,-726.5 643.62,-726.5 637.62,-720.5 637.62,-714.5 637.62,-714.5 637.62,-702.5 637.62,-702.5 637.62,-696.5 643.62,-690.5 649.62,-690.5"/>
<text xml:space="preserve" text-anchor="middle" x="715.38" y="-704.2" font-family="Helvetica,sans-Serif" font-size="14.00">YCoordinatesOffsets</text>
</g>
<!-- Steps&#45;&gt;YCoordinatesOffsets -->
<g id="edge14" class="edge">
<title>Steps&#45;&gt;YCoordinatesOffsets</title>
<path fill="none" stroke="gray" d="M493.26,-593.04C511.09,-618.38 544.19,-659.76 583.25,-681.5 596.49,-688.87 611.48,-694.24 626.49,-698.14"/>
<polygon fill="gray" stroke="gray" points="625.37,-701.47 635.91,-700.39 626.99,-694.66 625.37,-701.47"/>
</g>
<!-- ZCoordinatesOffsets -->
<g id="node16" class="node">
<title>ZCoordinatesOffsets</title>
<path fill="lightgrey" stroke="black" d="M648.5,-635.5C648.5,-635.5 782.25,-635.5 782.25,-635.5 788.25,-635.5 794.25,-641.5 794.25,-647.5 794.25,-647.5 794.25,-659.5 794.25,-659.5 794.25,-665.5 788.25,-671.5 782.25,-671.5 782.25,-671.5 648.5,-671.5 648.5,-671.5 642.5,-671.5 636.5,-665.5 636.5,-659.5 636.5,-659.5 636.5,-647.5 636.5,-647.5 636.5,-641.5 642.5,-635.5 648.5,-635.5"/>
<text xml:space="preserve" text-anchor="middle" x="715.38" y="-649.2" font-family="Helvetica,sans-Serif" font-size="14.00">ZCoordinatesOffsets</text>
</g>
<!-- Steps&#45;&gt;ZCoordinatesOffsets -->
<g id="edge15" class="edge">
<title>Steps&#45;&gt;ZCoordinatesOffsets</title>
<path fill="none" stroke="gray" d="M513.18,-592.64C532.99,-604.13 558.81,-617.73 583.25,-626.5 596.59,-631.29 611.01,-635.32 625.24,-638.7"/>
<polygon fill="gray" stroke="gray" points="624.06,-642.02 634.59,-640.81 625.61,-635.19 624.06,-642.02"/>
</g>
<!-- DescriptorsOffsets -->
<g id="node17" class="node">
<title>DescriptorsOffsets</title>
<path fill="lightgrey" stroke="black" d="M654.88,-580.5C654.88,-580.5 775.88,-580.5 775.88,-580.5 781.88,-580.5 787.88,-586.5 787.88,-592.5 787.88,-592.5 787.88,-604.5 787.88,-604.5 787.88,-610.5 781.88,-616.5 775.88,-616.5 775.88,-616.5 654.88,-616.5 654.88,-616.5 648.88,-616.5 642.88,-610.5 642.88,-604.5 642.88,-604.5 642.88,-592.5 642.88,-592.5 642.88,-586.5 648.88,-580.5 654.88,-580.5"/>
<text xml:space="preserve" text-anchor="middle" x="715.38" y="-594.2" font-family="Helvetica,sans-Serif" font-size="14.00">DescriptorsOffsets</text>
</g>
<!-- Steps&#45;&gt;DescriptorsOffsets -->
<g id="edge16" class="edge">
<title>Steps&#45;&gt;DescriptorsOffsets</title>
<path fill="none" stroke="gray" d="M513.58,-575.45C544.38,-578.99 590.75,-584.31 631.17,-588.95"/>
<polygon fill="gray" stroke="gray" points="630.56,-592.4 640.9,-590.07 631.36,-585.45 630.56,-592.4"/>
</g>
<!-- TreeIdsOffsets -->
<g id="node18" class="node">
<title>TreeIdsOffsets</title>
<path fill="lightgrey" stroke="black" d="M669.88,-525.5C669.88,-525.5 760.88,-525.5 760.88,-525.5 766.88,-525.5 772.88,-531.5 772.88,-537.5 772.88,-537.5 772.88,-549.5 772.88,-549.5 772.88,-555.5 766.88,-561.5 760.88,-561.5 760.88,-561.5 669.88,-561.5 669.88,-561.5 663.88,-561.5 657.88,-555.5 657.88,-549.5 657.88,-549.5 657.88,-537.5 657.88,-537.5 657.88,-531.5 663.88,-525.5 669.88,-525.5"/>
<text xml:space="preserve" text-anchor="middle" x="715.38" y="-539.2" font-family="Helvetica,sans-Serif" font-size="14.00">TreeIdsOffsets</text>
</g>
<!-- Steps&#45;&gt;TreeIdsOffsets -->
<g id="edge17" class="edge">
<title>Steps&#45;&gt;TreeIdsOffsets</title>
<path fill="none" stroke="gray" d="M513.58,-567.4C548.26,-563.27 602.68,-556.79 646.13,-551.62"/>
<polygon fill="gray" stroke="gray" points="646.47,-555.11 655.99,-550.45 645.64,-548.16 646.47,-555.11"/>
</g>
<!-- MaskOffsets -->
<g id="node19" class="node">
<title>MaskOffsets</title>
<path fill="lightgrey" stroke="black" d="M676.62,-470.5C676.62,-470.5 754.12,-470.5 754.12,-470.5 760.12,-470.5 766.12,-476.5 766.12,-482.5 766.12,-482.5 766.12,-494.5 766.12,-494.5 766.12,-500.5 760.12,-506.5 754.12,-506.5 754.12,-506.5 676.62,-506.5 676.62,-506.5 670.62,-506.5 664.62,-500.5 664.62,-494.5 664.62,-494.5 664.62,-482.5 664.62,-482.5 664.62,-476.5 670.62,-470.5 676.62,-470.5"/>
<text xml:space="preserve" text-anchor="middle" x="715.38" y="-484.2" font-family="Helvetica,sans-Serif" font-size="14.00">MaskOffsets</text>
</g>
<!-- Steps&#45;&gt;MaskOffsets -->
<g id="edge18" class="edge">
<title>Steps&#45;&gt;MaskOffsets</title>
<path fill="none" stroke="gray" d="M513.36,-557.95C524.4,-553.18 536.54,-547.5 547.25,-541.5 564.24,-531.98 565.37,-524.24 583.25,-516.5 605.18,-507 630.61,-500.62 653.2,-496.38"/>
<polygon fill="gray" stroke="gray" points="653.65,-499.86 662.89,-494.67 652.43,-492.96 653.65,-499.86"/>
</g>
<!-- PartOffsets -->
<g id="node20" class="node">
<title>PartOffsets</title>
<path fill="lightgrey" stroke="black" d="M681.12,-415.5C681.12,-415.5 749.62,-415.5 749.62,-415.5 755.62,-415.5 761.62,-421.5 761.62,-427.5 761.62,-427.5 761.62,-439.5 761.62,-439.5 761.62,-445.5 755.62,-451.5 749.62,-451.5 749.62,-451.5 681.12,-451.5 681.12,-451.5 675.12,-451.5 669.12,-445.5 669.12,-439.5 669.12,-439.5 669.12,-427.5 669.12,-427.5 669.12,-421.5 675.12,-415.5 681.12,-415.5"/>
<text xml:space="preserve" text-anchor="middle" x="715.38" y="-429.2" font-family="Helvetica,sans-Serif" font-size="14.00">PartOffsets</text>
</g>
<!-- Steps&#45;&gt;PartOffsets -->
<g id="edge19" class="edge">
<title>Steps&#45;&gt;PartOffsets</title>
<path fill="none" stroke="gray" d="M513.61,-561.93C525.42,-557.3 537.98,-550.69 547.25,-541.5 574.93,-514.04 552.91,-485.99 583.25,-461.5 603.98,-444.76 632.39,-437.39 657.47,-434.36"/>
<polygon fill="gray" stroke="gray" points="657.6,-437.87 667.21,-433.41 656.91,-430.9 657.6,-437.87"/>
</g>
<!-- NumberOfCellsPerTreeDepthOffsets -->
<g id="node21" class="node">
<title>NumberOfCellsPerTreeDepthOffsets</title>
<path fill="lightgrey" stroke="black" d="M595.25,-360.5C595.25,-360.5 835.5,-360.5 835.5,-360.5 841.5,-360.5 847.5,-366.5 847.5,-372.5 847.5,-372.5 847.5,-384.5 847.5,-384.5 847.5,-390.5 841.5,-396.5 835.5,-396.5 835.5,-396.5 595.25,-396.5 595.25,-396.5 589.25,-396.5 583.25,-390.5 583.25,-384.5 583.25,-384.5 583.25,-372.5 583.25,-372.5 583.25,-366.5 589.25,-360.5 595.25,-360.5"/>
<text xml:space="preserve" text-anchor="middle" x="715.38" y="-374.2" font-family="Helvetica,sans-Serif" font-size="14.00">NumberOfCellsPerTreeDepthOffsets</text>
</g>
<!-- Steps&#45;&gt;NumberOfCellsPerTreeDepthOffsets -->
<g id="edge20" class="edge">
<title>Steps&#45;&gt;NumberOfCellsPerTreeDepthOffsets</title>
<path fill="none" stroke="gray" d="M513.41,-563.13C525.62,-558.57 538.51,-551.71 547.25,-541.5 587.65,-494.34 538.25,-449.29 583.25,-406.5 584.32,-405.48 585.41,-404.5 586.53,-403.55"/>
<polygon fill="gray" stroke="gray" points="588.39,-406.53 594.36,-397.78 584.24,-400.9 588.39,-406.53"/>
</g>
<!-- CellDataOffsets -->
<g id="node22" class="node">
<title>CellDataOffsets</title>
<path fill="lightblue" stroke="black" d="M665.75,-305.5C665.75,-305.5 765,-305.5 765,-305.5 771,-305.5 777,-311.5 777,-317.5 777,-317.5 777,-329.5 777,-329.5 777,-335.5 771,-341.5 765,-341.5 765,-341.5 665.75,-341.5 665.75,-341.5 659.75,-341.5 653.75,-335.5 653.75,-329.5 653.75,-329.5 653.75,-317.5 653.75,-317.5 653.75,-311.5 659.75,-305.5 665.75,-305.5"/>
<text xml:space="preserve" text-anchor="middle" x="715.38" y="-319.2" font-family="Helvetica,sans-Serif" font-size="14.00">CellDataOffsets</text>
</g>
<!-- Steps&#45;&gt;CellDataOffsets -->
<g id="edge21" class="edge">
<title>Steps&#45;&gt;CellDataOffsets</title>
<path fill="none" stroke="gray" d="M513.46,-563.59C525.83,-559.08 538.81,-552.12 547.25,-541.5 600.73,-474.22 523.18,-412.97 583.25,-351.5 598.7,-335.69 620.72,-327.76 642.32,-324.03"/>
<polygon fill="gray" stroke="gray" points="642.63,-327.52 652.05,-322.66 641.65,-320.59 642.63,-327.52"/>
</g>
<!-- CellDataEtc -->
<g id="node23" class="node">
<title>CellDataEtc</title>
<path fill="lightgrey" stroke="black" d="M895.5,-305.5C895.5,-305.5 925.5,-305.5 925.5,-305.5 931.5,-305.5 937.5,-311.5 937.5,-317.5 937.5,-317.5 937.5,-329.5 937.5,-329.5 937.5,-335.5 931.5,-341.5 925.5,-341.5 925.5,-341.5 895.5,-341.5 895.5,-341.5 889.5,-341.5 883.5,-335.5 883.5,-329.5 883.5,-329.5 883.5,-317.5 883.5,-317.5 883.5,-311.5 889.5,-305.5 895.5,-305.5"/>
<text xml:space="preserve" text-anchor="middle" x="910.5" y="-319.2" font-family="Helvetica,sans-Serif" font-size="14.00">...</text>
</g>
<!-- CellDataOffsets&#45;&gt;CellDataEtc -->
<g id="edge22" class="edge">
<title>CellDataOffsets&#45;&gt;CellDataEtc</title>
<path fill="none" stroke="gray" d="M777.48,-323.5C808.48,-323.5 845.13,-323.5 871.95,-323.5"/>
<polygon fill="gray" stroke="gray" points="871.64,-327 881.64,-323.5 871.64,-320 871.64,-327"/>
</g>
</g>
</svg>
