<?xml version="1.0" encoding="UTF-8" standalone="no"?>
<!DOCTYPE svg PUBLIC "-//W3C//DTD SVG 1.1//EN"
 "http://www.w3.org/Graphics/SVG/1.1/DTD/svg11.dtd">
<!-- Generated by graphviz version 14.1.2 (20260126.1125)
 -->
<!-- Title: G Pages: 1 -->
<svg width="421pt" height="210pt"
 viewBox="0.00 0.00 421.00 210.00" xmlns="http://www.w3.org/2000/svg" xmlns:xlink="http://www.w3.org/1999/xlink">
<g id="graph0" class="graph" transform="scale(1 1) rotate(0) translate(4 206)">
<title>G</title>
<!-- VTKHDF -->
<g id="node1" class="node">
<title>VTKHDF</title>
<path fill="lightblue" stroke="black" d="M12,-79.25C12,-79.25 100,-79.25 100,-79.25 106,-79.25 112,-85.25 112,-91.25 112,-91.25 112,-109.75 112,-109.75 112,-115.75 106,-121.75 100,-121.75 100,-121.75 12,-121.75 12,-121.75 6,-121.75 0,-115.75 0,-109.75 0,-109.75 0,-91.25 0,-91.25 0,-85.25 6,-79.25 12,-79.25"/>
<text xml:space="preserve" text-anchor="middle" x="56" y="-104.45" font-family="Helvetica,sans-Serif" font-size="14.00">VTKHDF</text>
<text xml:space="preserve" text-anchor="middle" x="56" y="-87.2" font-family="Helvetica,sans-Serif" font-size="14.00"> Version, Type</text>
</g>
<!-- Assembly -->
<g id="node2" class="node">
<title>Assembly</title>
<path fill="lightblue" stroke="black" d="M160,-165.5C160,-165.5 219.5,-165.5 219.5,-165.5 225.5,-165.5 231.5,-171.5 231.5,-177.5 231.5,-177.5 231.5,-189.5 231.5,-189.5 231.5,-195.5 225.5,-201.5 219.5,-201.5 219.5,-201.5 160,-201.5 160,-201.5 154,-201.5 148,-195.5 148,-189.5 148,-189.5 148,-177.5 148,-177.5 148,-171.5 154,-165.5 160,-165.5"/>
<text xml:space="preserve" text-anchor="middle" x="189.75" y="-179.2" font-family="Helvetica,sans-Serif" font-size="14.00">Assembly</text>
</g>
<!-- VTKHDF&#45;&gt;Assembly -->
<g id="edge1" class="edge">
<title>VTKHDF&#45;&gt;Assembly</title>
<path fill="none" stroke="gray" d="M91.27,-122.09C109.24,-133.41 131.32,-147.32 149.91,-159.03"/>
<polygon fill="gray" stroke="gray" points="147.95,-161.94 158.28,-164.3 151.68,-156.01 147.95,-161.94"/>
</g>
<!-- Block0 -->
<g id="node3" class="node">
<title>Block0</title>
<path fill="lightblue" stroke="black" d="M170.5,-110.5C170.5,-110.5 209,-110.5 209,-110.5 215,-110.5 221,-116.5 221,-122.5 221,-122.5 221,-134.5 221,-134.5 221,-140.5 215,-146.5 209,-146.5 209,-146.5 170.5,-146.5 170.5,-146.5 164.5,-146.5 158.5,-140.5 158.5,-134.5 158.5,-134.5 158.5,-122.5 158.5,-122.5 158.5,-116.5 164.5,-110.5 170.5,-110.5"/>
<text xml:space="preserve" text-anchor="middle" x="189.75" y="-124.2" font-family="Helvetica,sans-Serif" font-size="14.00">Block0</text>
</g>
<!-- VTKHDF&#45;&gt;Block0 -->
<g id="edge2" class="edge">
<title>VTKHDF&#45;&gt;Block0</title>
<path fill="none" stroke="gray" d="M112.49,-112.29C124.08,-114.76 136.11,-117.31 147.09,-119.65"/>
<polygon fill="gray" stroke="gray" points="146.11,-123.02 156.62,-121.67 147.56,-116.17 146.11,-123.02"/>
</g>
<!-- BlockEtc -->
<g id="node4" class="node">
<title>BlockEtc</title>
<path fill="lightblue" stroke="black" d="M174.75,-55.5C174.75,-55.5 204.75,-55.5 204.75,-55.5 210.75,-55.5 216.75,-61.5 216.75,-67.5 216.75,-67.5 216.75,-79.5 216.75,-79.5 216.75,-85.5 210.75,-91.5 204.75,-91.5 204.75,-91.5 174.75,-91.5 174.75,-91.5 168.75,-91.5 162.75,-85.5 162.75,-79.5 162.75,-79.5 162.75,-67.5 162.75,-67.5 162.75,-61.5 168.75,-55.5 174.75,-55.5"/>
<text xml:space="preserve" text-anchor="middle" x="189.75" y="-69.2" font-family="Helvetica,sans-Serif" font-size="14.00">...</text>
</g>
<!-- VTKHDF&#45;&gt;BlockEtc -->
<g id="edge3" class="edge">
<title>VTKHDF&#45;&gt;BlockEtc</title>
<path fill="none" stroke="gray" d="M112.49,-89.13C125.6,-86.44 139.28,-83.64 151.36,-81.16"/>
<polygon fill="gray" stroke="gray" points="151.82,-84.64 160.91,-79.2 150.41,-77.78 151.82,-84.64"/>
</g>
<!-- BlockN -->
<g id="node5" class="node">
<title>BlockN</title>
<path fill="lightblue" stroke="black" d="M169.75,-0.5C169.75,-0.5 209.75,-0.5 209.75,-0.5 215.75,-0.5 221.75,-6.5 221.75,-12.5 221.75,-12.5 221.75,-24.5 221.75,-24.5 221.75,-30.5 215.75,-36.5 209.75,-36.5 209.75,-36.5 169.75,-36.5 169.75,-36.5 163.75,-36.5 157.75,-30.5 157.75,-24.5 157.75,-24.5 157.75,-12.5 157.75,-12.5 157.75,-6.5 163.75,-0.5 169.75,-0.5"/>
<text xml:space="preserve" text-anchor="middle" x="189.75" y="-14.2" font-family="Helvetica,sans-Serif" font-size="14.00">BlockN</text>
</g>
<!-- VTKHDF&#45;&gt;BlockN -->
<g id="edge4" class="edge">
<title>VTKHDF&#45;&gt;BlockN</title>
<path fill="none" stroke="gray" d="M91.62,-78.96C109.45,-67.85 131.27,-54.28 149.71,-42.8"/>
<polygon fill="gray" stroke="gray" points="151.35,-45.9 157.99,-37.64 147.65,-39.96 151.35,-45.9"/>
</g>
<!-- GroupNameEtc -->
<g id="node6" class="node">
<title>GroupNameEtc</title>
<path fill="lightblue" stroke="black" d="M280,-165.5C280,-165.5 310,-165.5 310,-165.5 316,-165.5 322,-171.5 322,-177.5 322,-177.5 322,-189.5 322,-189.5 322,-195.5 316,-201.5 310,-201.5 310,-201.5 280,-201.5 280,-201.5 274,-201.5 268,-195.5 268,-189.5 268,-189.5 268,-177.5 268,-177.5 268,-171.5 274,-165.5 280,-165.5"/>
<text xml:space="preserve" text-anchor="middle" x="295" y="-179.2" font-family="Helvetica,sans-Serif" font-size="14.00">...</text>
</g>
<!-- Assembly&#45;&gt;GroupNameEtc -->
<g id="edge5" class="edge">
<title>Assembly&#45;&gt;GroupNameEtc</title>
<path fill="none" stroke="gray" d="M231.85,-183.5C239.85,-183.5 248.19,-183.5 256.07,-183.5"/>
<polygon fill="gray" stroke="gray" points="256.07,-187 266.07,-183.5 256.07,-180 256.07,-187"/>
</g>
<!-- Steps0 -->
<g id="node7" class="node">
<title>Steps0</title>
<path fill="lightblue" stroke="black" d="M279.5,-110.5C279.5,-110.5 310.5,-110.5 310.5,-110.5 316.5,-110.5 322.5,-116.5 322.5,-122.5 322.5,-122.5 322.5,-134.5 322.5,-134.5 322.5,-140.5 316.5,-146.5 310.5,-146.5 310.5,-146.5 279.5,-146.5 279.5,-146.5 273.5,-146.5 267.5,-140.5 267.5,-134.5 267.5,-134.5 267.5,-122.5 267.5,-122.5 267.5,-116.5 273.5,-110.5 279.5,-110.5"/>
<text xml:space="preserve" text-anchor="middle" x="295" y="-124.2" font-family="Helvetica,sans-Serif" font-size="14.00">Steps</text>
</g>
<!-- Block0&#45;&gt;Steps0 -->
<g id="edge6" class="edge">
<title>Block0&#45;&gt;Steps0</title>
<path fill="none" stroke="gray" d="M221.45,-128.5C232.21,-128.5 244.44,-128.5 255.75,-128.5"/>
<polygon fill="gray" stroke="gray" points="255.58,-132 265.58,-128.5 255.58,-125 255.58,-132"/>
</g>
<!-- StepsN -->
<g id="node8" class="node">
<title>StepsN</title>
<path fill="lightblue" stroke="black" d="M279.5,-0.5C279.5,-0.5 310.5,-0.5 310.5,-0.5 316.5,-0.5 322.5,-6.5 322.5,-12.5 322.5,-12.5 322.5,-24.5 322.5,-24.5 322.5,-30.5 316.5,-36.5 310.5,-36.5 310.5,-36.5 279.5,-36.5 279.5,-36.5 273.5,-36.5 267.5,-30.5 267.5,-24.5 267.5,-24.5 267.5,-12.5 267.5,-12.5 267.5,-6.5 273.5,-0.5 279.5,-0.5"/>
<text xml:space="preserve" text-anchor="middle" x="295" y="-14.2" font-family="Helvetica,sans-Serif" font-size="14.00">Steps</text>
</g>
<!-- BlockN&#45;&gt;StepsN -->
<g id="edge7" class="edge">
<title>BlockN&#45;&gt;StepsN</title>
<path fill="none" stroke="gray" d="M222.01,-18.5C232.67,-18.5 244.71,-18.5 255.85,-18.5"/>
<polygon fill="gray" stroke="gray" points="255.52,-22 265.52,-18.5 255.52,-15 255.52,-22"/>
</g>
<!-- Steps0Etc -->
<g id="node9" class="node">
<title>Steps0Etc</title>
<path fill="lightblue" stroke="black" d="M370.5,-110.5C370.5,-110.5 400.5,-110.5 400.5,-110.5 406.5,-110.5 412.5,-116.5 412.5,-122.5 412.5,-122.5 412.5,-134.5 412.5,-134.5 412.5,-140.5 406.5,-146.5 400.5,-146.5 400.5,-146.5 370.5,-146.5 370.5,-146.5 364.5,-146.5 358.5,-140.5 358.5,-134.5 358.5,-134.5 358.5,-122.5 358.5,-122.5 358.5,-116.5 364.5,-110.5 370.5,-110.5"/>
<text xml:space="preserve" text-anchor="middle" x="385.5" y="-124.2" font-family="Helvetica,sans-Serif" font-size="14.00">...</text>
</g>
<!-- Steps0&#45;&gt;Steps0Etc -->
<g id="edge8" class="edge">
<title>Steps0&#45;&gt;Steps0Etc</title>
<path fill="none" stroke="gray" d="M322.55,-128.5C330.24,-128.5 338.77,-128.5 346.99,-128.5"/>
<polygon fill="gray" stroke="gray" points="346.76,-132 356.76,-128.5 346.76,-125 346.76,-132"/>
</g>
<!-- StepsNEtc -->
<g id="node10" class="node">
<title>StepsNEtc</title>
<path fill="lightblue" stroke="black" d="M370.5,-0.5C370.5,-0.5 400.5,-0.5 400.5,-0.5 406.5,-0.5 412.5,-6.5 412.5,-12.5 412.5,-12.5 412.5,-24.5 412.5,-24.5 412.5,-30.5 406.5,-36.5 400.5,-36.5 400.5,-36.5 370.5,-36.5 370.5,-36.5 364.5,-36.5 358.5,-30.5 358.5,-24.5 358.5,-24.5 358.5,-12.5 358.5,-12.5 358.5,-6.5 364.5,-0.5 370.5,-0.5"/>
<text xml:space="preserve" text-anchor="middle" x="385.5" y="-14.2" font-family="Helvetica,sans-Serif" font-size="14.00">...</text>
</g>
<!-- StepsN&#45;&gt;StepsNEtc -->
<g id="edge9" class="edge">
<title>StepsN&#45;&gt;StepsNEtc</title>
<path fill="none" stroke="gray" d="M322.55,-18.5C330.24,-18.5 338.77,-18.5 346.99,-18.5"/>
<polygon fill="gray" stroke="gray" points="346.76,-22 356.76,-18.5 346.76,-15 346.76,-22"/>
</g>
</g>
</svg>
