<?xml version="1.0" encoding="UTF-8" standalone="no"?>
<!DOCTYPE svg PUBLIC "-//W3C//DTD SVG 1.1//EN"
 "http://www.w3.org/Graphics/SVG/1.1/DTD/svg11.dtd">
<!-- Generated by graphviz version 14.1.2 (20260126.1125)
 -->
<!-- Title: G Pages: 1 -->
<svg width="634pt" height="204pt"
 viewBox="0.00 0.00 634.00 204.00" xmlns="http://www.w3.org/2000/svg" xmlns:xlink="http://www.w3.org/1999/xlink">
<g id="graph0" class="graph" transform="scale(1 1) rotate(0) translate(4 200)">
<title>G</title>
<!-- VTKHDF -->
<g id="node1" class="node">
<title>VTKHDF</title>
<path fill="lightblue" stroke="black" d="M129,-153C129,-153 500.5,-153 500.5,-153 506.5,-153 512.5,-159 512.5,-165 512.5,-165 512.5,-183.5 512.5,-183.5 512.5,-189.5 506.5,-195.5 500.5,-195.5 500.5,-195.5 129,-195.5 129,-195.5 123,-195.5 117,-189.5 117,-183.5 117,-183.5 117,-165 117,-165 117,-159 123,-153 129,-153"/>
<text xml:space="preserve" text-anchor="middle" x="314.75" y="-178.2" font-family="Helvetica,sans-Serif" font-size="14.00">VTKHDF</text>
<text xml:space="preserve" text-anchor="middle" x="314.75" y="-160.95" font-family="Helvetica,sans-Serif" font-size="14.00"> Version, Type, WholeExtent, Origin, Spacing, Direction</text>
</g>
<!-- FieldData -->
<g id="node2" class="node">
<title>FieldData</title>
<path fill="lightblue" stroke="black" d="M142.88,-76.75C142.88,-76.75 198.62,-76.75 198.62,-76.75 204.62,-76.75 210.62,-82.75 210.62,-88.75 210.62,-88.75 210.62,-100.75 210.62,-100.75 210.62,-106.75 204.62,-112.75 198.62,-112.75 198.62,-112.75 142.88,-112.75 142.88,-112.75 136.88,-112.75 130.88,-106.75 130.88,-100.75 130.88,-100.75 130.88,-88.75 130.88,-88.75 130.88,-82.75 136.88,-76.75 142.88,-76.75"/>
<text xml:space="preserve" text-anchor="middle" x="170.75" y="-90.08" font-family="Helvetica,sans-Serif" font-size="14.00">FieldData</text>
</g>
<!-- VTKHDF&#45;&gt;FieldData -->
<g id="edge1" class="edge">
<title>VTKHDF&#45;&gt;FieldData</title>
<path fill="none" stroke="gray" d="M276.54,-152.68C256.96,-142.15 233.06,-129.28 212.94,-118.45"/>
<polygon fill="gray" stroke="gray" points="214.6,-115.37 204.13,-113.72 211.28,-121.54 214.6,-115.37"/>
</g>
<!-- PointData -->
<g id="node3" class="node">
<title>PointData</title>
<path fill="lightblue" stroke="black" d="M252.38,-73.5C252.38,-73.5 377.12,-73.5 377.12,-73.5 383.12,-73.5 389.12,-79.5 389.12,-85.5 389.12,-85.5 389.12,-104 389.12,-104 389.12,-110 383.12,-116 377.12,-116 377.12,-116 252.38,-116 252.38,-116 246.38,-116 240.38,-110 240.38,-104 240.38,-104 240.38,-85.5 240.38,-85.5 240.38,-79.5 246.38,-73.5 252.38,-73.5"/>
<text xml:space="preserve" text-anchor="middle" x="314.75" y="-98.7" font-family="Helvetica,sans-Serif" font-size="14.00">PointData</text>
<text xml:space="preserve" text-anchor="middle" x="314.75" y="-81.45" font-family="Helvetica,sans-Serif" font-size="14.00">Scalars, Vectors, ...</text>
</g>
<!-- VTKHDF&#45;&gt;PointData -->
<g id="edge2" class="edge">
<title>VTKHDF&#45;&gt;PointData</title>
<path fill="none" stroke="gray" d="M314.75,-152.89C314.75,-145.12 314.75,-136.06 314.75,-127.48"/>
<polygon fill="gray" stroke="gray" points="318.25,-127.76 314.75,-117.76 311.25,-127.76 318.25,-127.76"/>
</g>
<!-- CellData -->
<g id="node4" class="node">
<title>CellData</title>
<path fill="lightblue" stroke="black" d="M431.38,-73.5C431.38,-73.5 556.12,-73.5 556.12,-73.5 562.12,-73.5 568.12,-79.5 568.12,-85.5 568.12,-85.5 568.12,-104 568.12,-104 568.12,-110 562.12,-116 556.12,-116 556.12,-116 431.38,-116 431.38,-116 425.38,-116 419.38,-110 419.38,-104 419.38,-104 419.38,-85.5 419.38,-85.5 419.38,-79.5 425.38,-73.5 431.38,-73.5"/>
<text xml:space="preserve" text-anchor="middle" x="493.75" y="-98.7" font-family="Helvetica,sans-Serif" font-size="14.00">CellData</text>
<text xml:space="preserve" text-anchor="middle" x="493.75" y="-81.45" font-family="Helvetica,sans-Serif" font-size="14.00">Scalars, Vectors, ...</text>
</g>
<!-- VTKHDF&#45;&gt;CellData -->
<g id="edge3" class="edge">
<title>VTKHDF&#45;&gt;CellData</title>
<path fill="none" stroke="gray" d="M362.25,-152.68C384.8,-142.92 411.96,-131.16 435.73,-120.87"/>
<polygon fill="gray" stroke="gray" points="436.85,-124.2 444.64,-117.01 434.07,-117.77 436.85,-124.2"/>
</g>
<!-- FieldArrayName -->
<g id="node5" class="node">
<title>FieldArrayName</title>
<path fill="lightgrey" stroke="black" d="M12,-0.5C12,-0.5 113.5,-0.5 113.5,-0.5 119.5,-0.5 125.5,-6.5 125.5,-12.5 125.5,-12.5 125.5,-24.5 125.5,-24.5 125.5,-30.5 119.5,-36.5 113.5,-36.5 113.5,-36.5 12,-36.5 12,-36.5 6,-36.5 0,-30.5 0,-24.5 0,-24.5 0,-12.5 0,-12.5 0,-6.5 6,-0.5 12,-0.5"/>
<text xml:space="preserve" text-anchor="middle" x="62.75" y="-13.82" font-family="Helvetica,sans-Serif" font-size="14.00">FieldArrayName</text>
</g>
<!-- FieldData&#45;&gt;FieldArrayName -->
<g id="edge4" class="edge">
<title>FieldData&#45;&gt;FieldArrayName</title>
<path fill="none" stroke="gray" d="M145.43,-76.34C131.08,-66.47 112.91,-53.99 97.27,-43.23"/>
<polygon fill="gray" stroke="gray" points="99.38,-40.44 89.16,-37.66 95.42,-46.21 99.38,-40.44"/>
</g>
<!-- FieldArrayNameEtc -->
<g id="node8" class="node">
<title>FieldArrayNameEtc</title>
<path fill="lightgrey" stroke="black" d="M155.75,-0.5C155.75,-0.5 185.75,-0.5 185.75,-0.5 191.75,-0.5 197.75,-6.5 197.75,-12.5 197.75,-12.5 197.75,-24.5 197.75,-24.5 197.75,-30.5 191.75,-36.5 185.75,-36.5 185.75,-36.5 155.75,-36.5 155.75,-36.5 149.75,-36.5 143.75,-30.5 143.75,-24.5 143.75,-24.5 143.75,-12.5 143.75,-12.5 143.75,-6.5 149.75,-0.5 155.75,-0.5"/>
<text xml:space="preserve" text-anchor="middle" x="170.5" y="-13.82" font-family="Helvetica,sans-Serif" font-size="14.00">...</text>
</g>
<!-- FieldData&#45;&gt;FieldArrayNameEtc -->
<g id="edge7" class="edge">
<title>FieldData&#45;&gt;FieldArrayNameEtc</title>
<path fill="none" stroke="gray" d="M170.75,-76.53C170.75,-68.16 170.75,-57.86 170.75,-48.34"/>
<polygon fill="gray" stroke="gray" points="174.25,-48.4 170.75,-38.4 167.25,-48.4 174.25,-48.4"/>
</g>
<!-- PointArrayName -->
<g id="node6" class="node">
<title>PointArrayName</title>
<path fill="lightgrey" stroke="black" d="M227.5,-0.5C227.5,-0.5 332,-0.5 332,-0.5 338,-0.5 344,-6.5 344,-12.5 344,-12.5 344,-24.5 344,-24.5 344,-30.5 338,-36.5 332,-36.5 332,-36.5 227.5,-36.5 227.5,-36.5 221.5,-36.5 215.5,-30.5 215.5,-24.5 215.5,-24.5 215.5,-12.5 215.5,-12.5 215.5,-6.5 221.5,-0.5 227.5,-0.5"/>
<text xml:space="preserve" text-anchor="middle" x="279.75" y="-13.82" font-family="Helvetica,sans-Serif" font-size="14.00">PointArrayName</text>
</g>
<!-- PointData&#45;&gt;PointArrayName -->
<g id="edge5" class="edge">
<title>PointData&#45;&gt;PointArrayName</title>
<path fill="none" stroke="gray" d="M305,-73.07C301.19,-64.98 296.76,-55.59 292.69,-46.95"/>
<polygon fill="gray" stroke="gray" points="295.87,-45.49 288.44,-37.94 289.54,-48.47 295.87,-45.49"/>
</g>
<!-- PointArrayNameEtc -->
<g id="node9" class="node">
<title>PointArrayNameEtc</title>
<path fill="lightgrey" stroke="black" d="M373.75,-0.5C373.75,-0.5 403.75,-0.5 403.75,-0.5 409.75,-0.5 415.75,-6.5 415.75,-12.5 415.75,-12.5 415.75,-24.5 415.75,-24.5 415.75,-30.5 409.75,-36.5 403.75,-36.5 403.75,-36.5 373.75,-36.5 373.75,-36.5 367.75,-36.5 361.75,-30.5 361.75,-24.5 361.75,-24.5 361.75,-12.5 361.75,-12.5 361.75,-6.5 367.75,-0.5 373.75,-0.5"/>
<text xml:space="preserve" text-anchor="middle" x="388.5" y="-13.82" font-family="Helvetica,sans-Serif" font-size="14.00">...</text>
</g>
<!-- PointData&#45;&gt;PointArrayNameEtc -->
<g id="edge8" class="edge">
<title>PointData&#45;&gt;PointArrayNameEtc</title>
<path fill="none" stroke="gray" d="M335.36,-73.07C344.14,-64.26 354.45,-53.91 363.67,-44.67"/>
<polygon fill="gray" stroke="gray" points="366.09,-47.19 370.67,-37.64 361.13,-42.25 366.09,-47.19"/>
</g>
<!-- CellArrayName -->
<g id="node7" class="node">
<title>CellArrayName</title>
<path fill="lightgrey" stroke="black" d="M446,-0.5C446,-0.5 541.5,-0.5 541.5,-0.5 547.5,-0.5 553.5,-6.5 553.5,-12.5 553.5,-12.5 553.5,-24.5 553.5,-24.5 553.5,-30.5 547.5,-36.5 541.5,-36.5 541.5,-36.5 446,-36.5 446,-36.5 440,-36.5 434,-30.5 434,-24.5 434,-24.5 434,-12.5 434,-12.5 434,-6.5 440,-0.5 446,-0.5"/>
<text xml:space="preserve" text-anchor="middle" x="493.75" y="-13.82" font-family="Helvetica,sans-Serif" font-size="14.00">CellArrayName</text>
</g>
<!-- CellData&#45;&gt;CellArrayName -->
<g id="edge6" class="edge">
<title>CellData&#45;&gt;CellArrayName</title>
<path fill="none" stroke="gray" d="M493.75,-73.07C493.75,-65.25 493.75,-56.22 493.75,-47.82"/>
<polygon fill="gray" stroke="gray" points="497.25,-48.08 493.75,-38.08 490.25,-48.08 497.25,-48.08"/>
</g>
<!-- CellArrayNameEtc -->
<g id="node10" class="node">
<title>CellArrayNameEtc</title>
<path fill="lightgrey" stroke="black" d="M583.75,-0.5C583.75,-0.5 613.75,-0.5 613.75,-0.5 619.75,-0.5 625.75,-6.5 625.75,-12.5 625.75,-12.5 625.75,-24.5 625.75,-24.5 625.75,-30.5 619.75,-36.5 613.75,-36.5 613.75,-36.5 583.75,-36.5 583.75,-36.5 577.75,-36.5 571.75,-30.5 571.75,-24.5 571.75,-24.5 571.75,-12.5 571.75,-12.5 571.75,-6.5 577.75,-0.5 583.75,-0.5"/>
<text xml:space="preserve" text-anchor="middle" x="598.5" y="-13.82" font-family="Helvetica,sans-Serif" font-size="14.00">...</text>
</g>
<!-- CellData&#45;&gt;CellArrayNameEtc -->
<g id="edge9" class="edge">
<title>CellData&#45;&gt;CellArrayNameEtc</title>
<path fill="none" stroke="gray" d="M523,-73.07C536.11,-63.79 551.65,-52.8 565.24,-43.2"/>
<polygon fill="gray" stroke="gray" points="566.89,-46.32 573.04,-37.68 562.85,-40.6 566.89,-46.32"/>
</g>
</g>
</svg>
