<?xml version="1.0" encoding="UTF-8" standalone="no"?>
<!DOCTYPE svg PUBLIC "-//W3C//DTD SVG 1.1//EN"
 "http://www.w3.org/Graphics/SVG/1.1/DTD/svg11.dtd">
<!-- Generated by graphviz version 14.1.2 (20260126.1125)
 -->
<!-- Title: G Pages: 1 -->
<svg width="677pt" height="277pt"
 viewBox="0.00 0.00 677.00 277.00" xmlns="http://www.w3.org/2000/svg" xmlns:xlink="http://www.w3.org/1999/xlink">
<g id="graph0" class="graph" transform="scale(1 1) rotate(0) translate(4 273)">
<title>G</title>
<!-- VTKHDF -->
<g id="node1" class="node">
<title>VTKHDF</title>
<path fill="lightblue" stroke="black" d="M357.25,-226C357.25,-226 445.25,-226 445.25,-226 451.25,-226 457.25,-232 457.25,-238 457.25,-238 457.25,-256.5 457.25,-256.5 457.25,-262.5 451.25,-268.5 445.25,-268.5 445.25,-268.5 357.25,-268.5 357.25,-268.5 351.25,-268.5 345.25,-262.5 345.25,-256.5 345.25,-256.5 345.25,-238 345.25,-238 345.25,-232 351.25,-226 357.25,-226"/>
<text xml:space="preserve" text-anchor="middle" x="401.25" y="-251.2" font-family="Helvetica,sans-Serif" font-size="14.00">VTKHDF</text>
<text xml:space="preserve" text-anchor="middle" x="401.25" y="-233.95" font-family="Helvetica,sans-Serif" font-size="14.00"> Version, Type</text>
</g>
<!-- Assembly -->
<g id="node2" class="node">
<title>Assembly</title>
<path fill="lightblue" stroke="black" d="M169.5,-149.75C169.5,-149.75 229,-149.75 229,-149.75 235,-149.75 241,-155.75 241,-161.75 241,-161.75 241,-173.75 241,-173.75 241,-179.75 235,-185.75 229,-185.75 229,-185.75 169.5,-185.75 169.5,-185.75 163.5,-185.75 157.5,-179.75 157.5,-173.75 157.5,-173.75 157.5,-161.75 157.5,-161.75 157.5,-155.75 163.5,-149.75 169.5,-149.75"/>
<text xml:space="preserve" text-anchor="middle" x="199.25" y="-163.07" font-family="Helvetica,sans-Serif" font-size="14.00">Assembly</text>
</g>
<!-- VTKHDF&#45;&gt;Assembly -->
<g id="edge1" class="edge">
<title>VTKHDF&#45;&gt;Assembly</title>
<path fill="none" stroke="gray" d="M345.18,-225.59C319.13,-215.89 287.54,-204 251.52,-189.96"/>
<polygon fill="gray" stroke="gray" points="253.24,-186.87 242.65,-186.49 250.69,-193.39 253.24,-186.87"/>
</g>
<!-- BlockName0 -->
<g id="node3" class="node">
<title>BlockName0</title>
<path fill="lightblue" stroke="black" d="M271.25,-146.5C271.25,-146.5 407.25,-146.5 407.25,-146.5 413.25,-146.5 419.25,-152.5 419.25,-158.5 419.25,-158.5 419.25,-177 419.25,-177 419.25,-183 413.25,-189 407.25,-189 407.25,-189 271.25,-189 271.25,-189 265.25,-189 259.25,-183 259.25,-177 259.25,-177 259.25,-158.5 259.25,-158.5 259.25,-152.5 265.25,-146.5 271.25,-146.5"/>
<text xml:space="preserve" text-anchor="middle" x="339.25" y="-171.7" font-family="Helvetica,sans-Serif" font-size="14.00">BlockName0</text>
<text xml:space="preserve" text-anchor="middle" x="339.25" y="-154.45" font-family="Helvetica,sans-Serif" font-size="14.00"> Index, Version, Type</text>
</g>
<!-- VTKHDF&#45;&gt;BlockName0 -->
<g id="edge2" class="edge">
<title>VTKHDF&#45;&gt;BlockName0</title>
<path fill="none" stroke="gray" d="M384.96,-225.89C378.18,-217.41 370.18,-207.41 362.78,-198.16"/>
<polygon fill="gray" stroke="gray" points="365.57,-196.05 356.59,-190.43 360.11,-200.42 365.57,-196.05"/>
</g>
<!-- BlockNameEtc -->
<g id="node4" class="node">
<title>BlockNameEtc</title>
<path fill="lightblue" stroke="black" d="M449.25,-149.75C449.25,-149.75 479.25,-149.75 479.25,-149.75 485.25,-149.75 491.25,-155.75 491.25,-161.75 491.25,-161.75 491.25,-173.75 491.25,-173.75 491.25,-179.75 485.25,-185.75 479.25,-185.75 479.25,-185.75 449.25,-185.75 449.25,-185.75 443.25,-185.75 437.25,-179.75 437.25,-173.75 437.25,-173.75 437.25,-161.75 437.25,-161.75 437.25,-155.75 443.25,-149.75 449.25,-149.75"/>
<text xml:space="preserve" text-anchor="middle" x="464" y="-163.07" font-family="Helvetica,sans-Serif" font-size="14.00">...</text>
</g>
<!-- VTKHDF&#45;&gt;BlockNameEtc -->
<g id="edge3" class="edge">
<title>VTKHDF&#45;&gt;BlockNameEtc</title>
<path fill="none" stroke="gray" d="M417.8,-225.89C425.51,-216.41 434.76,-205.02 442.98,-194.92"/>
<polygon fill="gray" stroke="gray" points="445.61,-197.23 449.2,-187.26 440.18,-192.81 445.61,-197.23"/>
</g>
<!-- BlockNameN -->
<g id="node5" class="node">
<title>BlockNameN</title>
<path fill="lightblue" stroke="black" d="M521.25,-146.5C521.25,-146.5 657.25,-146.5 657.25,-146.5 663.25,-146.5 669.25,-152.5 669.25,-158.5 669.25,-158.5 669.25,-177 669.25,-177 669.25,-183 663.25,-189 657.25,-189 657.25,-189 521.25,-189 521.25,-189 515.25,-189 509.25,-183 509.25,-177 509.25,-177 509.25,-158.5 509.25,-158.5 509.25,-152.5 515.25,-146.5 521.25,-146.5"/>
<text xml:space="preserve" text-anchor="middle" x="589.25" y="-171.7" font-family="Helvetica,sans-Serif" font-size="14.00">BlockNameN</text>
<text xml:space="preserve" text-anchor="middle" x="589.25" y="-154.45" font-family="Helvetica,sans-Serif" font-size="14.00"> Index, Version, Type</text>
</g>
<!-- VTKHDF&#45;&gt;BlockNameN -->
<g id="edge4" class="edge">
<title>VTKHDF&#45;&gt;BlockNameN</title>
<path fill="none" stroke="gray" d="M451.14,-225.68C474.93,-215.88 503.61,-204.06 528.65,-193.73"/>
<polygon fill="gray" stroke="gray" points="529.82,-197.04 537.73,-189.99 527.15,-190.56 529.82,-197.04"/>
</g>
<!-- GroupName0 -->
<g id="node6" class="node">
<title>GroupName0</title>
<path fill="lightblue" stroke="black" d="M58.5,-73.5C58.5,-73.5 142,-73.5 142,-73.5 148,-73.5 154,-79.5 154,-85.5 154,-85.5 154,-97.5 154,-97.5 154,-103.5 148,-109.5 142,-109.5 142,-109.5 58.5,-109.5 58.5,-109.5 52.5,-109.5 46.5,-103.5 46.5,-97.5 46.5,-97.5 46.5,-85.5 46.5,-85.5 46.5,-79.5 52.5,-73.5 58.5,-73.5"/>
<text xml:space="preserve" text-anchor="middle" x="100.25" y="-86.83" font-family="Helvetica,sans-Serif" font-size="14.00">GroupName0</text>
</g>
<!-- Assembly&#45;&gt;GroupName0 -->
<g id="edge5" class="edge">
<title>Assembly&#45;&gt;GroupName0</title>
<path fill="none" stroke="gray" d="M176.04,-149.34C163.01,-139.57 146.55,-127.22 132.3,-116.54"/>
<polygon fill="gray" stroke="gray" points="134.63,-113.91 124.53,-110.71 130.43,-119.51 134.63,-113.91"/>
</g>
<!-- GroupNameEtc -->
<g id="node7" class="node">
<title>GroupNameEtc</title>
<path fill="lightblue" stroke="black" d="M184.25,-73.5C184.25,-73.5 214.25,-73.5 214.25,-73.5 220.25,-73.5 226.25,-79.5 226.25,-85.5 226.25,-85.5 226.25,-97.5 226.25,-97.5 226.25,-103.5 220.25,-109.5 214.25,-109.5 214.25,-109.5 184.25,-109.5 184.25,-109.5 178.25,-109.5 172.25,-103.5 172.25,-97.5 172.25,-97.5 172.25,-85.5 172.25,-85.5 172.25,-79.5 178.25,-73.5 184.25,-73.5"/>
<text xml:space="preserve" text-anchor="middle" x="199" y="-86.83" font-family="Helvetica,sans-Serif" font-size="14.00">...</text>
</g>
<!-- Assembly&#45;&gt;GroupNameEtc -->
<g id="edge6" class="edge">
<title>Assembly&#45;&gt;GroupNameEtc</title>
<path fill="none" stroke="gray" d="M199.25,-149.53C199.25,-141.16 199.25,-130.86 199.25,-121.34"/>
<polygon fill="gray" stroke="gray" points="202.75,-121.4 199.25,-111.4 195.75,-121.4 202.75,-121.4"/>
</g>
<!-- AssemblyBlockName0 -->
<g id="node8" class="node">
<title>AssemblyBlockName0</title>
<path fill="#cd96cd" stroke="black" d="M256.75,-73.5C256.75,-73.5 335.75,-73.5 335.75,-73.5 341.75,-73.5 347.75,-79.5 347.75,-85.5 347.75,-85.5 347.75,-97.5 347.75,-97.5 347.75,-103.5 341.75,-109.5 335.75,-109.5 335.75,-109.5 256.75,-109.5 256.75,-109.5 250.75,-109.5 244.75,-103.5 244.75,-97.5 244.75,-97.5 244.75,-85.5 244.75,-85.5 244.75,-79.5 250.75,-73.5 256.75,-73.5"/>
<text xml:space="preserve" text-anchor="middle" x="296.25" y="-86.83" font-family="Helvetica,sans-Serif" font-size="14.00">BlockName0</text>
</g>
<!-- Assembly&#45;&gt;AssemblyBlockName0 -->
<g id="edge7" class="edge">
<title>Assembly&#45;&gt;AssemblyBlockName0</title>
<path fill="none" stroke="gray" d="M221.75,-149.53C234.51,-139.76 250.68,-127.38 264.7,-116.65"/>
<polygon fill="gray" stroke="gray" points="266.52,-119.66 272.34,-110.8 262.27,-114.1 266.52,-119.66"/>
</g>
<!-- AssemblyBlockNameN -->
<g id="node9" class="node">
<title>AssemblyBlockNameN</title>
<path fill="#cd96cd" stroke="black" d="M12,-0.5C12,-0.5 92.5,-0.5 92.5,-0.5 98.5,-0.5 104.5,-6.5 104.5,-12.5 104.5,-12.5 104.5,-24.5 104.5,-24.5 104.5,-30.5 98.5,-36.5 92.5,-36.5 92.5,-36.5 12,-36.5 12,-36.5 6,-36.5 0,-30.5 0,-24.5 0,-24.5 0,-12.5 0,-12.5 0,-6.5 6,-0.5 12,-0.5"/>
<text xml:space="preserve" text-anchor="middle" x="52.25" y="-13.82" font-family="Helvetica,sans-Serif" font-size="14.00">BlockNameN</text>
</g>
<!-- GroupName0&#45;&gt;AssemblyBlockNameN -->
<g id="edge9" class="edge">
<title>GroupName0&#45;&gt;AssemblyBlockNameN</title>
<path fill="none" stroke="gray" d="M88.63,-73.31C83.09,-65.12 76.33,-55.12 70.16,-45.98"/>
<polygon fill="gray" stroke="gray" points="73.11,-44.11 64.61,-37.78 67.31,-48.03 73.11,-44.11"/>
</g>
<!-- GroupName0Etc -->
<g id="node10" class="node">
<title>GroupName0Etc</title>
<path fill="#cd96cd" stroke="black" d="M134.25,-0.5C134.25,-0.5 164.25,-0.5 164.25,-0.5 170.25,-0.5 176.25,-6.5 176.25,-12.5 176.25,-12.5 176.25,-24.5 176.25,-24.5 176.25,-30.5 170.25,-36.5 164.25,-36.5 164.25,-36.5 134.25,-36.5 134.25,-36.5 128.25,-36.5 122.25,-30.5 122.25,-24.5 122.25,-24.5 122.25,-12.5 122.25,-12.5 122.25,-6.5 128.25,-0.5 134.25,-0.5"/>
<text xml:space="preserve" text-anchor="middle" x="149" y="-13.82" font-family="Helvetica,sans-Serif" font-size="14.00">...</text>
</g>
<!-- GroupName0&#45;&gt;GroupName0Etc -->
<g id="edge8" class="edge">
<title>GroupName0&#45;&gt;GroupName0Etc</title>
<path fill="none" stroke="gray" d="M112.11,-73.31C117.77,-65.12 124.67,-55.12 130.97,-45.98"/>
<polygon fill="gray" stroke="gray" points="133.84,-47.99 136.64,-37.77 128.08,-44.02 133.84,-47.99"/>
</g>
<!-- AssemblyBlockName0&#45;&gt;BlockName0 -->
<g id="edge10" class="edge">
<title>AssemblyBlockName0&#45;&gt;BlockName0</title>
<path fill="none" stroke="#cd96cd" stroke-dasharray="1,5" d="M306.13,-109.57C310.7,-117.46 316.28,-127.08 321.54,-136.16"/>
<polygon fill="#cd96cd" stroke="#cd96cd" points="318.47,-137.86 326.51,-144.76 324.53,-134.35 318.47,-137.86"/>
</g>
<!-- AssemblyBlockNameN&#45;&gt;BlockNameN -->
<g id="edge11" class="edge">
<title>AssemblyBlockNameN&#45;&gt;BlockNameN</title>
<path fill="none" stroke="#cd96cd" stroke-dasharray="1,5" d="M104.71,-35.03C107.59,-35.73 110.45,-36.39 113.25,-37 220.39,-60.17 251.47,-44.26 357.25,-73 420.84,-90.27 490.52,-119.99 536.75,-141.34"/>
<polygon fill="#cd96cd" stroke="#cd96cd" points="535.2,-144.48 545.75,-145.53 538.16,-138.13 535.2,-144.48"/>
</g>
</g>
</svg>
