<?xml version="1.0" encoding="UTF-8" standalone="no"?>
<!DOCTYPE svg PUBLIC "-//W3C//DTD SVG 1.1//EN"
 "http://www.w3.org/Graphics/SVG/1.1/DTD/svg11.dtd">
<!-- Generated by graphviz version 14.1.2 (20260126.1125)
 -->
<!-- Title: G Pages: 1 -->
<svg width="634pt" height="284pt"
 viewBox="0.00 0.00 634.00 284.00" xmlns="http://www.w3.org/2000/svg" xmlns:xlink="http://www.w3.org/1999/xlink">
<g id="graph0" class="graph" transform="scale(1 1) rotate(0) translate(4 279.5)">
<title>G</title>
<!-- VTKHDF -->
<g id="node1" class="node">
<title>VTKHDF</title>
<path fill="lightblue" stroke="black" d="M140.38,-232.5C140.38,-232.5 397.12,-232.5 397.12,-232.5 403.12,-232.5 409.12,-238.5 409.12,-244.5 409.12,-244.5 409.12,-263 409.12,-263 409.12,-269 403.12,-275 397.12,-275 397.12,-275 140.38,-275 140.38,-275 134.38,-275 128.38,-269 128.38,-263 128.38,-263 128.38,-244.5 128.38,-244.5 128.38,-238.5 134.38,-232.5 140.38,-232.5"/>
<text xml:space="preserve" text-anchor="middle" x="268.75" y="-257.7" font-family="Helvetica,sans-Serif" font-size="14.00">VTKHDF</text>
<text xml:space="preserve" text-anchor="middle" x="268.75" y="-240.45" font-family="Helvetica,sans-Serif" font-size="14.00"> Version, Type, GridDescription, Origin</text>
</g>
<!-- Level0 -->
<g id="node2" class="node">
<title>Level0</title>
<path fill="lightblue" stroke="black" d="M201.75,-153C201.75,-153 253.75,-153 253.75,-153 259.75,-153 265.75,-159 265.75,-165 265.75,-165 265.75,-183.5 265.75,-183.5 265.75,-189.5 259.75,-195.5 253.75,-195.5 253.75,-195.5 201.75,-195.5 201.75,-195.5 195.75,-195.5 189.75,-189.5 189.75,-183.5 189.75,-183.5 189.75,-165 189.75,-165 189.75,-159 195.75,-153 201.75,-153"/>
<text xml:space="preserve" text-anchor="middle" x="227.75" y="-178.2" font-family="Helvetica,sans-Serif" font-size="14.00">Level0</text>
<text xml:space="preserve" text-anchor="middle" x="227.75" y="-160.95" font-family="Helvetica,sans-Serif" font-size="14.00"> Spacing</text>
</g>
<!-- VTKHDF&#45;&gt;Level0 -->
<g id="edge1" class="edge">
<title>VTKHDF&#45;&gt;Level0</title>
<path fill="none" stroke="gray" d="M257.98,-232.39C253.68,-224.26 248.64,-214.74 243.92,-205.82"/>
<polygon fill="gray" stroke="gray" points="247.07,-204.29 239.3,-197.08 240.88,-207.56 247.07,-204.29"/>
</g>
<!-- LevelEtc -->
<g id="node3" class="node">
<title>LevelEtc</title>
<path fill="lightblue" stroke="black" d="M295.75,-156.25C295.75,-156.25 325.75,-156.25 325.75,-156.25 331.75,-156.25 337.75,-162.25 337.75,-168.25 337.75,-168.25 337.75,-180.25 337.75,-180.25 337.75,-186.25 331.75,-192.25 325.75,-192.25 325.75,-192.25 295.75,-192.25 295.75,-192.25 289.75,-192.25 283.75,-186.25 283.75,-180.25 283.75,-180.25 283.75,-168.25 283.75,-168.25 283.75,-162.25 289.75,-156.25 295.75,-156.25"/>
<text xml:space="preserve" text-anchor="middle" x="310.5" y="-169.57" font-family="Helvetica,sans-Serif" font-size="14.00">...</text>
</g>
<!-- VTKHDF&#45;&gt;LevelEtc -->
<g id="edge2" class="edge">
<title>VTKHDF&#45;&gt;LevelEtc</title>
<path fill="none" stroke="gray" d="M279.79,-232.39C284.71,-223.3 290.59,-212.45 295.89,-202.66"/>
<polygon fill="gray" stroke="gray" points="298.95,-204.38 300.63,-193.92 292.79,-201.04 298.95,-204.38"/>
</g>
<!-- AMRBox -->
<g id="node4" class="node">
<title>AMRBox</title>
<path fill="lightgrey" stroke="black" d="M53.88,-76.75C53.88,-76.75 103.62,-76.75 103.62,-76.75 109.62,-76.75 115.62,-82.75 115.62,-88.75 115.62,-88.75 115.62,-100.75 115.62,-100.75 115.62,-106.75 109.62,-112.75 103.62,-112.75 103.62,-112.75 53.88,-112.75 53.88,-112.75 47.88,-112.75 41.88,-106.75 41.88,-100.75 41.88,-100.75 41.88,-88.75 41.88,-88.75 41.88,-82.75 47.88,-76.75 53.88,-76.75"/>
<text xml:space="preserve" text-anchor="middle" x="78.75" y="-90.08" font-family="Helvetica,sans-Serif" font-size="14.00">AMRBox</text>
</g>
<!-- Level0&#45;&gt;AMRBox -->
<g id="edge3" class="edge">
<title>Level0&#45;&gt;AMRBox</title>
<path fill="none" stroke="gray" d="M189.38,-153.29C168.78,-142.58 143.32,-129.33 122.01,-118.25"/>
<polygon fill="gray" stroke="gray" points="123.76,-115.22 113.27,-113.71 120.53,-121.43 123.76,-115.22"/>
</g>
<!-- FieldData -->
<g id="node5" class="node">
<title>FieldData</title>
<path fill="lightblue" stroke="black" d="M145.88,-76.75C145.88,-76.75 201.62,-76.75 201.62,-76.75 207.62,-76.75 213.62,-82.75 213.62,-88.75 213.62,-88.75 213.62,-100.75 213.62,-100.75 213.62,-106.75 207.62,-112.75 201.62,-112.75 201.62,-112.75 145.88,-112.75 145.88,-112.75 139.88,-112.75 133.88,-106.75 133.88,-100.75 133.88,-100.75 133.88,-88.75 133.88,-88.75 133.88,-82.75 139.88,-76.75 145.88,-76.75"/>
<text xml:space="preserve" text-anchor="middle" x="173.75" y="-90.08" font-family="Helvetica,sans-Serif" font-size="14.00">FieldData</text>
</g>
<!-- Level0&#45;&gt;FieldData -->
<g id="edge6" class="edge">
<title>Level0&#45;&gt;FieldData</title>
<path fill="none" stroke="gray" d="M213.56,-152.89C207.03,-143.51 199.19,-132.26 192.2,-122.23"/>
<polygon fill="gray" stroke="gray" points="195.28,-120.53 186.7,-114.33 189.54,-124.54 195.28,-120.53"/>
</g>
<!-- PointData -->
<g id="node6" class="node">
<title>PointData</title>
<path fill="lightblue" stroke="black" d="M247.38,-73.5C247.38,-73.5 312.12,-73.5 312.12,-73.5 318.12,-73.5 324.12,-79.5 324.12,-85.5 324.12,-85.5 324.12,-104 324.12,-104 324.12,-110 318.12,-116 312.12,-116 312.12,-116 247.38,-116 247.38,-116 241.38,-116 235.38,-110 235.38,-104 235.38,-104 235.38,-85.5 235.38,-85.5 235.38,-79.5 241.38,-73.5 247.38,-73.5"/>
<text xml:space="preserve" text-anchor="middle" x="279.75" y="-98.7" font-family="Helvetica,sans-Serif" font-size="14.00">PointData</text>
<text xml:space="preserve" text-anchor="middle" x="279.75" y="-81.45" font-family="Helvetica,sans-Serif" font-size="14.00">Scalars, ...</text>
</g>
<!-- Level0&#45;&gt;PointData -->
<g id="edge4" class="edge">
<title>Level0&#45;&gt;PointData</title>
<path fill="none" stroke="gray" d="M241.41,-152.89C246.98,-144.59 253.53,-134.82 259.63,-125.74"/>
<polygon fill="gray" stroke="gray" points="262.49,-127.76 265.16,-117.5 256.68,-123.86 262.49,-127.76"/>
</g>
<!-- CellData -->
<g id="node7" class="node">
<title>CellData</title>
<path fill="lightblue" stroke="black" d="M461.38,-73.5C461.38,-73.5 526.12,-73.5 526.12,-73.5 532.12,-73.5 538.12,-79.5 538.12,-85.5 538.12,-85.5 538.12,-104 538.12,-104 538.12,-110 532.12,-116 526.12,-116 526.12,-116 461.38,-116 461.38,-116 455.38,-116 449.38,-110 449.38,-104 449.38,-104 449.38,-85.5 449.38,-85.5 449.38,-79.5 455.38,-73.5 461.38,-73.5"/>
<text xml:space="preserve" text-anchor="middle" x="493.75" y="-98.7" font-family="Helvetica,sans-Serif" font-size="14.00">CellData</text>
<text xml:space="preserve" text-anchor="middle" x="493.75" y="-81.45" font-family="Helvetica,sans-Serif" font-size="14.00">Scalars, ...</text>
</g>
<!-- Level0&#45;&gt;CellData -->
<g id="edge5" class="edge">
<title>Level0&#45;&gt;CellData</title>
<path fill="none" stroke="gray" d="M266.02,-155.75C268.95,-154.59 271.89,-153.5 274.75,-152.5 329.18,-133.57 393.16,-117.7 437.86,-107.6"/>
<polygon fill="gray" stroke="gray" points="438.6,-111.02 447.6,-105.42 437.08,-104.19 438.6,-111.02"/>
</g>
<!-- FieldArrayName -->
<g id="node8" class="node">
<title>FieldArrayName</title>
<path fill="lightgrey" stroke="black" d="M12,-0.5C12,-0.5 113.5,-0.5 113.5,-0.5 119.5,-0.5 125.5,-6.5 125.5,-12.5 125.5,-12.5 125.5,-24.5 125.5,-24.5 125.5,-30.5 119.5,-36.5 113.5,-36.5 113.5,-36.5 12,-36.5 12,-36.5 6,-36.5 0,-30.5 0,-24.5 0,-24.5 0,-12.5 0,-12.5 0,-6.5 6,-0.5 12,-0.5"/>
<text xml:space="preserve" text-anchor="middle" x="62.75" y="-13.82" font-family="Helvetica,sans-Serif" font-size="14.00">FieldArrayName</text>
</g>
<!-- FieldData&#45;&gt;FieldArrayName -->
<g id="edge7" class="edge">
<title>FieldData&#45;&gt;FieldArrayName</title>
<path fill="none" stroke="gray" d="M147.73,-76.34C132.83,-66.38 113.95,-53.75 97.78,-42.93"/>
<polygon fill="gray" stroke="gray" points="100.13,-40.29 89.87,-37.64 96.24,-46.11 100.13,-40.29"/>
</g>
<!-- FieldArrayEtc -->
<g id="node11" class="node">
<title>FieldArrayEtc</title>
<path fill="lightgrey" stroke="black" d="M155.75,-0.5C155.75,-0.5 185.75,-0.5 185.75,-0.5 191.75,-0.5 197.75,-6.5 197.75,-12.5 197.75,-12.5 197.75,-24.5 197.75,-24.5 197.75,-30.5 191.75,-36.5 185.75,-36.5 185.75,-36.5 155.75,-36.5 155.75,-36.5 149.75,-36.5 143.75,-30.5 143.75,-24.5 143.75,-24.5 143.75,-12.5 143.75,-12.5 143.75,-6.5 149.75,-0.5 155.75,-0.5"/>
<text xml:space="preserve" text-anchor="middle" x="170.5" y="-13.82" font-family="Helvetica,sans-Serif" font-size="14.00">...</text>
</g>
<!-- FieldData&#45;&gt;FieldArrayEtc -->
<g id="edge10" class="edge">
<title>FieldData&#45;&gt;FieldArrayEtc</title>
<path fill="none" stroke="gray" d="M173.05,-76.53C172.72,-68.16 172.3,-57.86 171.92,-48.34"/>
<polygon fill="gray" stroke="gray" points="175.41,-48.25 171.51,-38.4 168.42,-48.53 175.41,-48.25"/>
</g>
<!-- PointArrayName -->
<g id="node9" class="node">
<title>PointArrayName</title>
<path fill="lightgrey" stroke="black" d="M227.5,-0.5C227.5,-0.5 332,-0.5 332,-0.5 338,-0.5 344,-6.5 344,-12.5 344,-12.5 344,-24.5 344,-24.5 344,-30.5 338,-36.5 332,-36.5 332,-36.5 227.5,-36.5 227.5,-36.5 221.5,-36.5 215.5,-30.5 215.5,-24.5 215.5,-24.5 215.5,-12.5 215.5,-12.5 215.5,-6.5 221.5,-0.5 227.5,-0.5"/>
<text xml:space="preserve" text-anchor="middle" x="279.75" y="-13.82" font-family="Helvetica,sans-Serif" font-size="14.00">PointArrayName</text>
</g>
<!-- PointData&#45;&gt;PointArrayName -->
<g id="edge8" class="edge">
<title>PointData&#45;&gt;PointArrayName</title>
<path fill="none" stroke="gray" d="M279.75,-73.07C279.75,-65.25 279.75,-56.22 279.75,-47.82"/>
<polygon fill="gray" stroke="gray" points="283.25,-48.08 279.75,-38.08 276.25,-48.08 283.25,-48.08"/>
</g>
<!-- PointArrayEtc -->
<g id="node12" class="node">
<title>PointArrayEtc</title>
<path fill="lightgrey" stroke="black" d="M373.75,-0.5C373.75,-0.5 403.75,-0.5 403.75,-0.5 409.75,-0.5 415.75,-6.5 415.75,-12.5 415.75,-12.5 415.75,-24.5 415.75,-24.5 415.75,-30.5 409.75,-36.5 403.75,-36.5 403.75,-36.5 373.75,-36.5 373.75,-36.5 367.75,-36.5 361.75,-30.5 361.75,-24.5 361.75,-24.5 361.75,-12.5 361.75,-12.5 361.75,-6.5 367.75,-0.5 373.75,-0.5"/>
<text xml:space="preserve" text-anchor="middle" x="388.5" y="-13.82" font-family="Helvetica,sans-Serif" font-size="14.00">...</text>
</g>
<!-- PointData&#45;&gt;PointArrayEtc -->
<g id="edge11" class="edge">
<title>PointData&#45;&gt;PointArrayEtc</title>
<path fill="none" stroke="gray" d="M310.11,-73.07C323.73,-63.79 339.86,-52.8 353.96,-43.2"/>
<polygon fill="gray" stroke="gray" points="355.79,-46.18 362.09,-37.66 351.85,-40.4 355.79,-46.18"/>
</g>
<!-- CellArrayName -->
<g id="node10" class="node">
<title>CellArrayName</title>
<path fill="lightgrey" stroke="black" d="M446,-0.5C446,-0.5 541.5,-0.5 541.5,-0.5 547.5,-0.5 553.5,-6.5 553.5,-12.5 553.5,-12.5 553.5,-24.5 553.5,-24.5 553.5,-30.5 547.5,-36.5 541.5,-36.5 541.5,-36.5 446,-36.5 446,-36.5 440,-36.5 434,-30.5 434,-24.5 434,-24.5 434,-12.5 434,-12.5 434,-6.5 440,-0.5 446,-0.5"/>
<text xml:space="preserve" text-anchor="middle" x="493.75" y="-13.82" font-family="Helvetica,sans-Serif" font-size="14.00">CellArrayName</text>
</g>
<!-- CellData&#45;&gt;CellArrayName -->
<g id="edge9" class="edge">
<title>CellData&#45;&gt;CellArrayName</title>
<path fill="none" stroke="gray" d="M493.75,-73.07C493.75,-65.25 493.75,-56.22 493.75,-47.82"/>
<polygon fill="gray" stroke="gray" points="497.25,-48.08 493.75,-38.08 490.25,-48.08 497.25,-48.08"/>
</g>
<!-- CellArrayEtc -->
<g id="node13" class="node">
<title>CellArrayEtc</title>
<path fill="lightgrey" stroke="black" d="M583.75,-0.5C583.75,-0.5 613.75,-0.5 613.75,-0.5 619.75,-0.5 625.75,-6.5 625.75,-12.5 625.75,-12.5 625.75,-24.5 625.75,-24.5 625.75,-30.5 619.75,-36.5 613.75,-36.5 613.75,-36.5 583.75,-36.5 583.75,-36.5 577.75,-36.5 571.75,-30.5 571.75,-24.5 571.75,-24.5 571.75,-12.5 571.75,-12.5 571.75,-6.5 577.75,-0.5 583.75,-0.5"/>
<text xml:space="preserve" text-anchor="middle" x="598.5" y="-13.82" font-family="Helvetica,sans-Serif" font-size="14.00">...</text>
</g>
<!-- CellData&#45;&gt;CellArrayEtc -->
<g id="edge12" class="edge">
<title>CellData&#45;&gt;CellArrayEtc</title>
<path fill="none" stroke="gray" d="M523,-73.07C536.11,-63.79 551.65,-52.8 565.24,-43.2"/>
<polygon fill="gray" stroke="gray" points="566.89,-46.32 573.04,-37.68 562.85,-40.6 566.89,-46.32"/>
</g>
</g>
</svg>
